<svg width="395" height="441" viewBox="0 0 395 441" fill="none" xmlns="http://www.w3.org/2000/svg">
<g clip-path="url(#clip0_9553_44457)">
<path d="M381.79 376.231H0" stroke="#66B0F0" stroke-width="1.10715" stroke-miterlimit="10"/>
<path d="M33.3491 382.739H251.981" stroke="#66B0F0" stroke-width="1.10715" stroke-miterlimit="10"/>
<path d="M362.116 295.474H301.056C298.166 295.474 295.818 297.684 295.818 300.404V376.231H367.341V300.404C367.354 297.684 365.006 295.474 362.116 295.474Z" fill="#D0F0E4"/>
<path d="M362.116 295.474H301.056C298.166 295.474 295.818 297.684 295.818 300.404V376.231H367.341V300.404C367.354 297.684 365.006 295.474 362.116 295.474Z" stroke="#FFCF2D" stroke-width="1.10715" stroke-miterlimit="10"/>
<path d="M375.7 210.287H287.586V376.219H375.7V210.287Z" stroke="#FFCF2D" stroke-width="1.10715" stroke-miterlimit="10"/>
<path d="M378.01 189.512H75.8311V210.287H395" stroke="#FFCF2D" stroke-width="1.10715" stroke-miterlimit="10"/>
<path d="M362.116 249.287H301.172C298.282 249.287 295.934 247.077 295.934 244.357V224.104C295.934 221.385 298.282 219.175 301.172 219.175H362.116C365.006 219.175 367.354 221.385 367.354 224.104V244.369C367.354 247.089 365.006 249.287 362.116 249.287Z" stroke="#FFCF2D" stroke-width="1.10715" stroke-miterlimit="10"/>
<path d="M362.116 285.955H301.172C298.282 285.955 295.934 283.746 295.934 281.026V260.773C295.934 258.053 298.282 255.843 301.172 255.843H362.116C365.006 255.843 367.354 258.053 367.354 260.773V281.026C367.354 283.746 365.006 285.955 362.116 285.955Z" stroke="#FFCF2D" stroke-width="1.10715" stroke-miterlimit="10"/>
<path d="M331.85 237.921C334.165 237.921 336.043 236.155 336.043 233.975C336.043 231.796 334.165 230.029 331.85 230.029C329.534 230.029 327.657 231.796 327.657 233.975C327.657 236.155 329.534 237.921 331.85 237.921Z" stroke="#66B0F0" stroke-width="1.10715" stroke-miterlimit="10"/>
<path d="M331.85 274.7C334.165 274.7 336.043 272.933 336.043 270.754C336.043 268.574 334.165 266.808 331.85 266.808C329.534 266.808 327.657 268.574 327.657 270.754C327.657 272.933 329.534 274.7 331.85 274.7Z" stroke="#66B0F0" stroke-width="1.10715" stroke-miterlimit="10"/>
<path d="M358.027 320.731L357.936 321.253L357.898 321.556L356.556 329.607L356.414 330.469L355.808 334.135L355.588 335.423L355.021 338.822L354.879 339.684L353.498 348.014V348.05L353.357 348.912L353.279 349.301L351.963 357.266L351.821 358.128L351.202 361.88V361.892L350.983 363.179L350.428 366.482L350.286 367.344L348.906 375.709L348.893 375.758L348.828 376.147L348.815 376.232H312.564L312.551 376.134L312.486 375.794L312.473 375.685L311.08 367.332L310.938 366.457L310.396 363.215L310.19 361.916L309.558 358.104L309.416 357.242L308.1 349.337L308.023 348.888L307.881 348.038V348.026L306.487 339.66L306.346 338.798L305.791 335.459L305.584 334.172L304.965 330.444L304.823 329.582L303.494 321.593L303.353 320.731H358.027Z" fill="white"/>
<path d="M349.164 376.608H312.215L312.06 375.709L302.875 320.354H358.491L349.164 376.608ZM312.899 375.855H348.467L357.549 321.119H303.804L312.899 375.855Z" fill="#66B0F0"/>
<path d="M358.529 320.73C358.529 320.9 358.504 321.082 358.439 321.252C358.001 322.527 355.988 323.705 352.827 324.676C352.595 324.749 352.363 324.81 352.131 324.883C350.092 325.453 347.654 325.951 344.906 326.328C344.648 326.364 344.39 326.401 344.119 326.437C341.694 326.753 339.049 326.983 336.25 327.117C335.966 327.129 335.695 327.141 335.411 327.153C333.876 327.214 332.289 327.25 330.676 327.25C329.438 327.25 328.212 327.226 327.012 327.19C326.716 327.178 326.419 327.165 326.122 327.153C322.897 327.032 319.852 326.777 317.092 326.413C316.756 326.364 316.434 326.328 316.111 326.279C311.428 325.611 307.661 324.628 305.352 323.45C304.01 322.77 303.172 322.029 302.901 321.252L302.823 320.742C302.823 317.148 315.286 314.246 330.663 314.246C345.951 314.246 358.362 317.124 358.504 320.694C358.529 320.694 358.529 320.706 358.529 320.73Z" fill="#66B0F0"/>
<path d="M348.916 375.721V376.207L348.826 376.146L348.813 376.219H348.478L344.362 371.216L343.936 370.694L339.795 365.667L339.369 365.145L335.228 360.118L334.803 359.596L330.661 354.57L330.236 354.048L326.094 349.021L325.669 348.499L321.54 343.472L321.115 342.95L316.973 337.923L316.548 337.401L312.419 332.374L311.994 331.852L307.865 326.825L307.44 326.303L303.479 321.495L303.415 321.143C303.673 321.908 304.498 322.636 305.814 323.304L307.852 325.781L308.278 326.303L312.419 331.33L312.845 331.852L316.986 336.879L317.412 337.401L321.553 342.428L321.979 342.95L326.12 347.977L326.546 348.499L330.687 353.525L331.113 354.048L335.254 359.074L335.68 359.596L339.821 364.623L340.247 365.145L344.388 370.172L344.814 370.694L348.929 375.697L348.916 375.721Z" fill="#66B0F0"/>
<path d="M350.428 366.481L350.286 367.343L348.918 365.68L348.493 365.158L344.352 360.131L343.926 359.609L339.785 354.582L339.359 354.06L335.218 349.033L334.792 348.511L330.651 343.484L330.225 342.962L326.123 337.984L325.697 337.462L321.556 332.435L321.13 331.913L316.989 326.886L316.563 326.364L316.382 326.146C316.692 326.194 317.014 326.231 317.337 326.279L317.401 326.364L321.543 331.391L321.968 331.913L326.11 336.94L326.535 337.462L330.677 342.489L331.102 343.011L335.243 348.038L335.669 348.56L339.81 353.586L340.236 354.109L344.377 359.135L344.803 359.657L348.944 364.684L349.37 365.206L350.428 366.481Z" fill="#66B0F0"/>
<path d="M351.962 357.265L351.82 358.127L348.917 354.606L348.492 354.084L344.351 349.057L343.925 348.535L339.784 343.508L339.358 342.986L335.217 337.959L334.791 337.437L330.65 332.41L330.224 331.888L326.186 326.983C326.483 326.995 326.767 327.007 327.063 327.019L330.65 331.366L331.075 331.888L335.217 336.915L335.642 337.437L339.784 342.464L340.209 342.986L344.351 348.013L344.776 348.535L348.917 353.562L349.343 354.084L351.962 357.265Z" fill="#66B0F0"/>
<path d="M353.497 348.05L353.355 348.912L353.058 348.547L348.917 343.521L348.491 342.998L344.35 337.972L343.924 337.45L339.783 332.423L339.357 331.901L335.319 326.995C335.59 326.983 335.874 326.971 336.145 326.959L339.783 331.379L340.209 331.901L344.35 336.928L344.776 337.45L348.917 342.476L349.343 342.998L353.484 348.025L353.497 348.05Z" fill="#66B0F0"/>
<path d="M321.812 376.036L321.554 376.218L321.541 376.23H321.116L316.988 371.228L316.562 370.706L312.434 365.679L312.008 365.169L310.395 363.215L310.189 361.915L312.434 364.647L312.859 365.169L316.988 370.184L317.413 370.706L321.554 375.732L321.812 376.036Z" fill="#66B0F0"/>
<path d="M312.679 376.036L312.55 376.133L312.485 375.793L312.679 376.036Z" fill="#66B0F0"/>
<path d="M330.933 376.037L330.675 376.219L330.662 376.231H330.237L326.121 371.228L325.696 370.706L321.554 365.68L321.129 365.17L316.987 360.143L316.562 359.633V359.621L312.433 354.606L312.008 354.084L308.099 349.337L308.021 348.887L307.879 348.037L308.292 348.547L312.433 353.574L312.859 354.084L316.987 359.111L317.413 359.633L321.554 364.648L321.98 365.17L326.121 370.184L326.547 370.706L330.675 375.733L330.933 376.037Z" fill="#66B0F0"/>
<path d="M340.054 376.037L339.796 376.219L339.783 376.231H339.357L335.242 371.229L334.816 370.707L330.675 365.68L330.249 365.17L326.121 360.143L325.695 359.633L321.554 354.606L321.128 354.084L316.987 349.07L316.561 348.548L312.433 343.521L312.007 343.011L307.866 337.984L307.44 337.474L305.789 335.459L305.583 334.172L307.866 336.952L308.292 337.474L312.433 342.489L312.859 343.011L316.987 348.025L317.413 348.548L321.554 353.574L321.98 354.084L326.121 359.111L326.547 359.633L330.675 364.648L331.101 365.17L335.242 370.184L335.667 370.707L339.796 375.733L340.054 376.037Z" fill="#66B0F0"/>
<path d="M355.019 338.822L354.877 339.684L353.483 337.984L353.058 337.462L348.917 332.435L348.491 331.913L344.35 326.886L343.924 326.364L343.873 326.304C344.131 326.267 344.389 326.231 344.634 326.194L344.776 326.364L348.917 331.391L349.342 331.913L353.483 336.94L353.909 337.462L355.019 338.822Z" fill="#66B0F0"/>
<path d="M356.554 329.606L356.412 330.468L353.484 326.91L353.058 326.388L351.755 324.798C351.988 324.737 352.22 324.664 352.439 324.591L353.484 325.866L353.91 326.388L356.554 329.606Z" fill="#66B0F0"/>
<path d="M358.401 320.925L358.039 321.362L357.936 321.24C358.001 321.07 358.026 320.901 358.026 320.731C358.026 320.706 358.026 320.694 358.026 320.67L358.039 320.658L358.401 320.925Z" fill="#66B0F0"/>
<path d="M355.807 334.134L355.588 335.421L353.911 337.473L353.485 337.983L349.344 343.01L348.918 343.52L344.79 348.546L344.364 349.068L340.223 354.083L339.797 354.605L335.669 359.632L335.243 360.142L331.102 365.169L330.676 365.679L326.548 370.705L326.122 371.227L321.994 376.23H321.568L321.555 376.218L321.31 376.036L321.555 375.732L325.696 370.705L326.122 370.183L330.25 365.169L330.676 364.646L334.817 359.632L335.243 359.11L339.371 354.083L339.797 353.573L343.938 348.546L344.364 348.024L348.492 343.01L348.918 342.487L353.059 337.473L353.485 336.951L355.807 334.134Z" fill="#66B0F0"/>
<path d="M357.897 321.556L353.911 326.4L353.485 326.922L349.344 331.949L348.918 332.471L344.777 337.498L344.351 338.02L340.21 343.047L339.784 343.569L335.669 348.547L335.243 349.069L331.102 354.096L330.676 354.618L326.535 359.645L326.109 360.167L321.968 365.194L321.542 365.716L317.401 370.743L316.975 371.265L312.86 376.267H312.55L312.537 376.17L312.486 375.83L312.434 375.769L312.473 375.721L316.575 370.743L317.001 370.22L321.142 365.194L321.568 364.672L325.709 359.645L326.135 359.123L330.276 354.096L330.702 353.574L334.843 348.547L335.269 348.025L339.41 342.998L339.836 342.476L343.977 337.449L344.403 336.927L348.544 331.901L348.97 331.378L353.098 326.352L353.524 325.83L355.549 323.365C356.878 322.697 357.716 321.968 357.987 321.191L357.897 321.556Z" fill="#66B0F0"/>
<path d="M344.957 326.181L344.776 326.399L344.35 326.921L340.209 331.948L339.783 332.47L335.642 337.497L335.216 338.019L331.075 343.046L330.65 343.568L326.508 348.595L326.083 349.117L321.941 354.144L321.516 354.666L317.374 359.692L316.949 360.215L312.808 365.241L312.382 365.763L311.027 367.403L310.885 366.541L311.956 365.241L312.382 364.719L316.51 359.692L316.936 359.17L321.077 354.144L321.503 353.622L325.631 348.595L326.057 348.073L330.198 343.046L330.624 342.524L334.765 337.497L335.191 336.975L339.332 331.948L339.758 331.426L343.899 326.399L343.963 326.314C344.183 326.29 344.402 326.254 344.608 326.229C344.75 326.205 344.853 326.193 344.957 326.181Z" fill="#66B0F0"/>
<path d="M335.141 327.031L331.103 331.924L330.677 332.447L326.536 337.473L326.11 337.995L321.969 343.022L321.543 343.544L317.402 348.571L316.976 349.093L312.835 354.12L312.409 354.642L309.533 358.139L309.391 357.277L311.984 354.12L312.409 353.598L316.551 348.571L316.976 348.049L321.118 343.022L321.543 342.5L325.685 337.473L326.11 336.951L330.251 331.924L330.677 331.402L334.264 327.056C334.547 327.056 334.844 327.043 335.141 327.031Z" fill="#66B0F0"/>
<path d="M351.201 361.89L350.982 363.177L349.343 365.168L348.917 365.678L344.789 370.705L344.364 371.227L340.235 376.229H339.81L339.797 376.217L339.552 376.035L339.797 375.731L343.938 370.705L344.364 370.183L348.492 365.168L348.917 364.646L351.201 361.89Z" fill="#66B0F0"/>
<path d="M353.279 349.3L349.344 354.084L348.918 354.606L344.79 359.632L344.364 360.142L340.223 365.169L339.797 365.679L335.669 370.706L335.243 371.228L331.115 376.23H330.689L330.676 376.218L330.431 376.036L330.676 375.733L334.817 370.706L335.243 370.184L339.372 365.169L339.797 364.647L343.938 359.632L344.364 359.11L348.492 354.084L348.918 353.574L353.059 348.547L353.485 348.025L353.498 348.013V348.049L353.356 348.911L353.279 349.3Z" fill="#66B0F0"/>
<path d="M326.019 327.019L321.981 331.924L321.555 332.446L317.414 337.473L316.988 337.995L312.847 343.022L312.421 343.544L308.28 348.571L308.009 348.911L307.867 348.073L307.854 348.061L307.867 348.049L311.996 343.034L312.421 342.512L316.55 337.485L316.975 336.963L321.117 331.936L321.542 331.414L325.18 326.995C325.477 326.995 325.748 327.007 326.019 327.019Z" fill="#66B0F0"/>
<path d="M317.479 326.327L317.427 326.4L317.002 326.922L312.86 331.948L312.435 332.471L308.294 337.497L307.868 338.019L306.488 339.695L306.346 338.833L307.442 337.497L307.868 336.975L311.996 331.948L312.422 331.426L316.563 326.4L316.705 326.23C316.911 326.254 317.131 326.29 317.35 326.315L317.479 326.327Z" fill="#66B0F0"/>
<path d="M309.61 324.797L308.294 326.388L307.868 326.91L304.952 330.443L304.811 329.581L307.442 326.388L307.868 325.866L308.926 324.591C309.145 324.664 309.377 324.736 309.61 324.797Z" fill="#66B0F0"/>
<path d="M360.683 313.603H348.776V310.191H356.001C358.258 310.191 360.142 311.648 360.683 313.603Z" fill="white" stroke="#FFCF2D" stroke-width="0.922628" stroke-miterlimit="10"/>
<path d="M356.079 310.191C352.699 310.227 349.744 312.352 348.841 315.424L346.093 324.81C345.706 324.87 345.306 324.931 344.907 324.98C344.648 325.016 344.39 325.053 344.12 325.089C341.694 325.405 339.049 325.635 336.25 325.769C335.966 325.781 335.695 325.793 335.411 325.805C333.876 325.866 332.289 325.902 330.677 325.902C329.438 325.902 328.213 325.878 327.013 325.842C326.716 325.83 326.419 325.817 326.123 325.805C326.007 325.805 325.891 325.793 325.774 325.793L328.819 315.424C329.722 312.328 332.715 310.191 336.134 310.191H356.079Z" fill="white" stroke="#FFCF2D" stroke-width="0.922628" stroke-miterlimit="10"/>
<path d="M343.112 86.6013L383.262 189.856H245.488L284.695 86.6013H343.112Z" fill="#FFCF2D"/>
<path d="M314.386 73.6592C314.386 69.3253 317.739 65.8118 321.874 65.8118H326.201C330.336 65.8118 333.688 69.3253 333.688 73.6592V175.212" stroke="#66B0F0" stroke-width="1.10715" stroke-miterlimit="10"/>
<path d="M343.746 186.82V189.962H312.172V186.82C312.172 184.142 313.043 181.666 314.505 179.7C316.528 176.976 319.704 175.211 323.248 175.211H332.655C332.803 175.211 332.965 175.211 333.113 175.227C339.035 175.474 343.746 180.567 343.746 186.82Z" fill="white" stroke="#FE5244" stroke-width="1.10715" stroke-miterlimit="10"/>
<path d="M350.76 86.4903H277.702V84.0912C277.702 78.3488 282.147 73.7053 287.612 73.7053H340.851C346.33 73.7053 350.76 78.3643 350.76 84.0912V86.4903Z" fill="#FE5244"/>
<path d="M350.76 84.571H277.702" stroke="white" stroke-width="0.922628" stroke-miterlimit="10" stroke-linecap="round"/>
<path d="M343.125 86.4907C343.125 89.2304 341.501 91.4592 339.477 91.4592H288.35C286.341 91.4592 284.702 89.2304 284.702 86.4907H343.125Z" fill="white"/>
<path d="M333.688 178.245C333.688 183.213 329.361 187.253 324.03 187.253C319.23 187.253 315.243 183.987 314.504 179.7C316.528 176.976 319.703 175.211 323.247 175.211H332.654C332.802 175.211 332.964 175.211 333.112 175.227C333.496 176.171 333.688 177.192 333.688 178.245Z" fill="white" stroke="#FE5244" stroke-width="1.10715" stroke-miterlimit="10"/>
<path d="M324.296 173.091V177.951C324.296 178.942 323.425 179.747 322.361 179.747C321.298 179.747 320.427 178.942 320.427 177.951V173.091H320.456C320.634 173.942 321.416 174.593 322.347 174.593C323.277 174.593 324.06 173.942 324.237 173.091H324.296Z" fill="#FE5244"/>
<path d="M323.883 172.921C323.883 173.029 323.868 173.137 323.853 173.246C323.72 174.02 323.1 174.592 322.347 174.592C321.608 174.592 320.988 174.02 320.841 173.246C320.826 173.137 320.811 173.029 320.811 172.921C320.811 171.992 321.49 171.249 322.347 171.249C323.189 171.249 323.883 172.007 323.883 172.921Z" fill="white" stroke="#FE5244" stroke-width="1.10715" stroke-miterlimit="10"/>
<path d="M286.802 134.17H282.39V189.513H286.802V134.17Z" fill="#3FB1B5"/>
<path d="M280.544 189.513H272.984C272.184 189.513 271.539 188.906 271.539 188.153V147.016C271.539 146.263 272.184 145.656 272.984 145.656H280.544C281.344 145.656 281.989 146.263 281.989 147.016V188.153C281.989 188.906 281.344 189.513 280.544 189.513Z" fill="white" stroke="#FFCF2D" stroke-width="0.922628" stroke-miterlimit="10"/>
<path d="M304.863 188.626H296.18C295.548 188.626 295.006 188.201 294.89 187.619L287.098 149.517C286.943 148.752 287.562 148.048 288.388 148.048H297.07C297.703 148.048 298.244 148.473 298.361 149.056L306.153 187.157C306.308 187.922 305.688 188.626 304.863 188.626Z" stroke="#66B0F0" stroke-width="1.10715" stroke-miterlimit="10"/>
<path d="M269.811 189.513H228.915C227.96 189.513 227.186 188.785 227.186 187.886V180.006C227.186 179.108 227.96 178.379 228.915 178.379H269.811C270.765 178.379 271.539 179.108 271.539 180.006V187.886C271.539 188.785 270.765 189.513 269.811 189.513Z" fill="#FE5244"/>
<path d="M58.034 3.08203V28.1916C58.034 33.109 53.7896 37.1037 48.5647 37.1037H18.9829C24.2078 37.1037 28.4522 33.1212 28.4522 28.1916V3.08203H58.034Z" fill="white" stroke="#FFCF2D" stroke-width="0.922628" stroke-miterlimit="10"/>
<path d="M44.3724 0.653687H41.9858V6.0081H44.3724V0.653687Z" fill="#FE5244"/>
<path d="M49.4289 12.6258C49.0935 12.6258 48.7581 12.5043 48.4871 12.2736L47.4938 11.448C47.1842 11.1931 46.7714 11.1931 46.4618 11.448L45.52 12.2372C44.9653 12.6986 44.1913 12.6986 43.6237 12.2372L42.7593 11.5209C42.4497 11.2659 42.0369 11.2659 41.7273 11.5209L40.9275 12.1887C40.3727 12.65 39.5987 12.65 39.0311 12.1887L38.3732 11.6423C38.0636 11.3873 37.6507 11.3873 37.3411 11.6423L36.6316 12.2372C36.0769 12.6986 35.3029 12.6986 34.7352 12.2372L34.0773 11.6909C33.7677 11.4359 33.3549 11.4359 33.0453 11.6909C32.9163 11.8001 32.7098 11.788 32.5937 11.6666C32.4776 11.5452 32.4905 11.3509 32.6196 11.2416C33.1743 10.7802 33.9483 10.7802 34.5159 11.2416L35.1738 11.788C35.4835 12.043 35.8963 12.043 36.2059 11.788L36.9154 11.1931C37.4701 10.7317 38.2442 10.7317 38.8118 11.1931L39.4697 11.7394C39.7793 11.9944 40.1921 11.9944 40.5017 11.7394L41.3016 11.0716C41.8563 10.6103 42.6303 10.6103 43.1979 11.0716L44.0623 11.788C44.3719 12.043 44.7847 12.043 45.0943 11.788L46.0361 10.9988C46.5908 10.5374 47.3648 10.5374 47.9324 10.9988L48.9258 11.8244C49.2354 12.0794 49.6482 12.0794 49.9578 11.8244L50.9898 10.9624C51.5446 10.501 52.3186 10.501 52.8862 10.9624C53.0152 11.0716 53.0281 11.2659 52.912 11.3873C52.7959 11.5087 52.5895 11.5209 52.4605 11.4116C52.1509 11.1566 51.7381 11.1566 51.4284 11.4116L50.3964 12.2736C50.0868 12.5043 49.7643 12.6258 49.4289 12.6258Z" fill="#FFCF2D"/>
<path d="M49.4289 17.6156C49.0935 17.6156 48.7581 17.4942 48.4871 17.2635L47.4938 16.4379C47.1842 16.1829 46.7714 16.1829 46.4618 16.4379L45.52 17.2271C44.9653 17.6885 44.1913 17.6885 43.6237 17.2271L42.7593 16.5107C42.4497 16.2558 42.0369 16.2558 41.7273 16.5107L40.9275 17.1785C40.3727 17.6399 39.5987 17.6399 39.0311 17.1785L38.3732 16.6322C38.0636 16.3772 37.6507 16.3772 37.3411 16.6322L36.6316 17.2271C36.0769 17.6885 35.3029 17.6885 34.7352 17.2271L34.0773 16.6807C33.7677 16.4258 33.3549 16.4258 33.0453 16.6807C32.9163 16.79 32.7098 16.7779 32.5937 16.6564C32.4776 16.535 32.4905 16.3408 32.6196 16.2315C33.1743 15.7701 33.9483 15.7701 34.5159 16.2315L35.1738 16.7779C35.4835 17.0328 35.8963 17.0328 36.2059 16.7779L36.9154 16.1829C37.4701 15.7215 38.2442 15.7215 38.8118 16.1829L39.4697 16.7293C39.7793 16.9843 40.1921 16.9843 40.5017 16.7293L41.3016 16.0615C41.8563 15.6001 42.6303 15.6001 43.1979 16.0615L44.0623 16.7779C44.3719 17.0328 44.7847 17.0328 45.0943 16.7779L46.0361 15.9887C46.5908 15.5273 47.3648 15.5273 47.9324 15.9887L48.9258 16.8143C49.2354 17.0693 49.6482 17.0693 49.9578 16.8143L50.9898 15.9522C51.5446 15.4909 52.3186 15.4909 52.8862 15.9522C53.0152 16.0615 53.0281 16.2558 52.912 16.3772C52.7959 16.4986 52.5895 16.5107 52.4605 16.4015C52.1509 16.1465 51.7381 16.1465 51.4284 16.4015L50.3964 17.2635C50.0868 17.5063 49.7643 17.6156 49.4289 17.6156Z" fill="#FFCF2D"/>
<path d="M49.4289 22.6062C49.0935 22.6062 48.7581 22.4848 48.4871 22.2541L47.4938 21.4285C47.1842 21.1735 46.7714 21.1735 46.4618 21.4285L45.52 22.2177C44.9653 22.6791 44.1913 22.6791 43.6237 22.2177L42.7593 21.5013C42.4497 21.2464 42.0369 21.2464 41.7273 21.5013L40.9275 22.1691C40.3727 22.6305 39.5987 22.6305 39.0311 22.1691L38.3732 21.6228C38.0636 21.3678 37.6507 21.3678 37.3411 21.6228L36.6316 22.2177C36.0769 22.6791 35.3029 22.6791 34.7352 22.2177L34.0773 21.6713C33.7677 21.4164 33.3549 21.4164 33.0453 21.6713C32.9163 21.7806 32.7098 21.7685 32.5937 21.647C32.4776 21.5256 32.4905 21.3314 32.6196 21.2221C33.1743 20.7607 33.9483 20.7607 34.5159 21.2221L35.1738 21.7685C35.4835 22.0234 35.8963 22.0234 36.2059 21.7685L36.9154 21.1735C37.4701 20.7121 38.2442 20.7121 38.8118 21.1735L39.4697 21.7199C39.7793 21.9749 40.1921 21.9749 40.5017 21.7199L41.3016 21.0521C41.8563 20.5907 42.6303 20.5907 43.1979 21.0521L44.0623 21.7685C44.3719 22.0234 44.7847 22.0234 45.0943 21.7685L46.0361 20.9793C46.5908 20.5179 47.3648 20.5179 47.9324 20.9793L48.9258 21.8049C49.2354 22.0599 49.6482 22.0599 49.9578 21.8049L50.9898 20.9428C51.5446 20.4815 52.3186 20.4815 52.8862 20.9428C53.0152 21.0521 53.0281 21.2464 52.912 21.3678C52.7959 21.4892 52.5895 21.5013 52.4605 21.3921C52.1509 21.1371 51.7381 21.1371 51.4284 21.3921L50.3964 22.2541C50.0868 22.4969 49.7643 22.6062 49.4289 22.6062Z" fill="#FFCF2D"/>
<path d="M49.4289 27.6087C49.0935 27.6087 48.7581 27.4873 48.4871 27.2566L47.4938 26.4309C47.1842 26.176 46.7714 26.176 46.4618 26.4309L45.52 27.2201C44.9653 27.6815 44.1913 27.6815 43.6237 27.2201L42.7593 26.5038C42.4497 26.2488 42.0369 26.2488 41.7273 26.5038L40.9275 27.1716C40.3727 27.633 39.5987 27.633 39.0311 27.1716L38.3732 26.6252C38.0636 26.3702 37.6507 26.3702 37.3411 26.6252L36.6316 27.2201C36.0769 27.6815 35.3029 27.6815 34.7352 27.2201L34.0773 26.6738C33.7677 26.4188 33.3549 26.4188 33.0453 26.6738C32.9163 26.783 32.7098 26.7709 32.5937 26.6495C32.4776 26.5281 32.4905 26.3338 32.6196 26.2245C33.1743 25.7632 33.9483 25.7632 34.5159 26.2245L35.1738 26.7709C35.4835 27.0259 35.8963 27.0259 36.2059 26.7709L36.9154 26.176C37.4701 25.7146 38.2442 25.7146 38.8118 26.176L39.4697 26.7223C39.7793 26.9773 40.1921 26.9773 40.5017 26.7223L41.3016 26.0546C41.8563 25.5932 42.6303 25.5932 43.1979 26.0546L44.0623 26.7709C44.3719 27.0259 44.7847 27.0259 45.0943 26.7709L46.0361 25.9817C46.5908 25.5203 47.3648 25.5203 47.9324 25.9817L48.9258 26.8073C49.2354 27.0623 49.6482 27.0623 49.9578 26.8073L50.9898 25.9453C51.5446 25.4839 52.3186 25.4839 52.8862 25.9453C53.0152 26.0545 53.0281 26.2488 52.912 26.3702C52.7959 26.4916 52.5895 26.5038 52.4605 26.3945C52.1509 26.1395 51.7381 26.1395 51.4284 26.3945L50.3964 27.2566C50.0868 27.4873 49.7643 27.6087 49.4289 27.6087Z" fill="#FFCF2D"/>
<path d="M88.4917 3.08228H67.7993V22.5573H88.4917V3.08228Z" fill="#66B0F0"/>
<path d="M72.3483 2.24864L70.8477 0.501953L65.3781 4.66008L66.8787 6.40676L72.3483 2.24864Z" fill="#FFCF2D"/>
<path d="M89.5662 6.4065L91.0664 4.65942L85.5979 0.499898L84.0977 2.24698L89.5662 6.4065Z" fill="#FFCF2D"/>
<path d="M84.1191 7.69641H71.5669V8.42452H84.1191V7.69641Z" fill="white"/>
<path d="M84.1191 10.8408H71.5669V11.5689H84.1191V10.8408Z" fill="white"/>
<path d="M84.1191 13.9983H71.5669V14.7264H84.1191V13.9983Z" fill="white"/>
<path d="M84.1191 17.1427H71.5669V17.8708H84.1191V17.1427Z" fill="white"/>
<path d="M226.217 189.512H177.98L187.321 170.085L188.688 167.231H215.509L219.276 175.063L226.217 189.512Z" fill="white" stroke="#66B0F0" stroke-width="1.10715" stroke-miterlimit="10"/>
<path d="M219.276 175.063L187.321 170.085L188.688 167.231H215.509L219.276 175.063Z" fill="#66B0F0"/>
<path d="M258.947 167.232H145.406C141.239 167.232 137.872 164.05 137.872 160.141V90.3852C137.872 86.4634 141.252 83.2943 145.406 83.2943H258.947C263.114 83.2943 266.481 86.4755 266.481 90.3852V160.128C266.481 164.05 263.101 167.232 258.947 167.232Z" fill="white" stroke="#66B0F0" stroke-width="1.10715" stroke-miterlimit="10"/>
<path d="M224.928 162.302H179.414C177.195 162.302 175.401 160.614 175.401 158.525V153.341C175.401 151.252 177.195 149.565 179.414 149.565H224.928C227.147 149.565 228.94 151.252 228.94 153.341V158.525C228.94 160.614 227.134 162.302 224.928 162.302Z" fill="#66B0F0"/>
<path d="M212.981 158.841H209.911C209.15 158.841 208.531 158.258 208.531 157.542V155.284C208.531 154.567 209.15 153.985 209.911 153.985H212.981C213.743 153.985 214.362 154.567 214.362 155.284V157.542C214.362 158.258 213.743 158.841 212.981 158.841Z" fill="white"/>
<path d="M216.891 158.465L215.756 157.785C215.446 157.603 215.253 157.275 215.253 156.923V155.903C215.253 155.551 215.446 155.223 215.756 155.041L216.891 154.361C217.162 154.203 217.511 154.385 217.511 154.677V158.137C217.523 158.441 217.162 158.623 216.891 158.465Z" fill="white"/>
<path d="M201.345 157.7H201.061C199.938 157.7 199.022 156.838 199.022 155.782V154.652C199.022 154.555 199.113 154.47 199.216 154.47H203.176C203.28 154.47 203.37 154.555 203.37 154.652V155.782C203.383 156.838 202.467 157.7 201.345 157.7ZM199.409 154.834V155.782C199.409 156.631 200.145 157.336 201.061 157.336H201.345C202.248 157.336 202.996 156.644 202.996 155.782V154.834H199.409Z" fill="white"/>
<path d="M201.202 159.8C201.099 159.8 201.008 159.715 201.008 159.618V158.246C201.008 158.149 201.099 158.064 201.202 158.064C201.305 158.064 201.396 158.149 201.396 158.246V159.618C201.396 159.715 201.305 159.8 201.202 159.8Z" fill="white"/>
<path d="M202.222 159.799H200.196C200.093 159.799 200.003 159.714 200.003 159.617C200.003 159.521 200.093 159.436 200.196 159.436H202.222C202.325 159.436 202.415 159.521 202.415 159.617C202.415 159.714 202.325 159.799 202.222 159.799Z" fill="white"/>
<path d="M201.293 156.85H201.113C200.468 156.85 199.952 156.364 199.952 155.757V153.547C199.952 152.94 200.468 152.454 201.113 152.454H201.293C201.938 152.454 202.454 152.94 202.454 153.547V155.757C202.454 156.364 201.938 156.85 201.293 156.85Z" fill="white"/>
<path d="M189.425 155.477L189.413 155.49C189.168 155.769 189.245 156.194 189.567 156.449L190.754 157.347C191.077 157.59 191.541 157.566 191.786 157.287L191.799 157.274C192.044 156.995 192.509 156.983 192.818 157.238L193.889 158.149C194.224 158.44 194.224 158.926 193.889 159.144C192.767 159.885 191.309 159.618 190.109 158.707L188.303 157.335C187.103 156.412 186.523 155.125 187.052 153.936C187.22 153.571 187.723 153.474 188.084 153.729L189.258 154.53C189.58 154.773 189.658 155.198 189.425 155.477Z" fill="white"/>
<path d="M192.573 156.182C192.47 156.182 192.393 156.109 192.38 156.012C192.315 155.137 191.515 154.47 190.587 154.53C190.483 154.53 190.393 154.457 190.38 154.36C190.367 154.263 190.458 154.178 190.561 154.166C191.709 154.093 192.689 154.919 192.767 155.987C192.78 156.084 192.702 156.169 192.573 156.182C192.586 156.182 192.586 156.182 192.573 156.182Z" fill="white"/>
<path d="M193.786 156C193.683 156 193.605 155.927 193.593 155.83C193.541 155.101 193.193 154.421 192.599 153.936C192.006 153.45 191.258 153.207 190.484 153.256C190.38 153.256 190.29 153.183 190.277 153.086C190.264 152.989 190.355 152.904 190.458 152.892C191.335 152.843 192.186 153.11 192.857 153.657C193.528 154.203 193.915 154.968 193.98 155.793C193.992 155.915 193.902 156 193.786 156C193.799 156 193.799 156 193.786 156Z" fill="white"/>
<path d="M237.416 89.8631C238.157 89.8631 238.758 89.2977 238.758 88.6004C238.758 87.903 238.157 87.3376 237.416 87.3376C236.675 87.3376 236.074 87.903 236.074 88.6004C236.074 89.2977 236.675 89.8631 237.416 89.8631Z" stroke="#FFCF2D" stroke-width="0.922628" stroke-miterlimit="10"/>
<path d="M242.899 89.8631C243.64 89.8631 244.24 89.2977 244.24 88.6004C244.24 87.903 243.64 87.3376 242.899 87.3376C242.158 87.3376 241.557 87.903 241.557 88.6004C241.557 89.2977 242.158 89.8631 242.899 89.8631Z" stroke="#FFCF2D" stroke-width="0.922628" stroke-miterlimit="10"/>
<path d="M248.395 89.8631C249.136 89.8631 249.736 89.2977 249.736 88.6004C249.736 87.903 249.136 87.3376 248.395 87.3376C247.654 87.3376 247.053 87.903 247.053 88.6004C247.053 89.2977 247.654 89.8631 248.395 89.8631Z" stroke="#FFCF2D" stroke-width="0.922628" stroke-miterlimit="10"/>
<path d="M197.397 146.457H156.966C155.727 146.457 154.734 145.51 154.734 144.356V123.982C154.734 122.816 155.74 121.881 156.966 121.881H197.397C198.636 121.881 199.629 122.828 199.629 123.982V144.356C199.629 145.51 198.636 146.457 197.397 146.457Z" stroke="#66B0F0" stroke-width="1.10715" stroke-miterlimit="10"/>
<path d="M248.394 146.456H207.962C206.724 146.456 205.73 145.509 205.73 144.356V123.982C205.73 122.816 206.737 121.881 207.962 121.881H248.394C249.632 121.881 250.626 122.828 250.626 123.982V144.356C250.626 145.509 249.632 146.456 248.394 146.456Z" fill="#3FB1B5"/>
<path d="M240.758 146.395H214.336C217.007 143.299 221.084 141.308 225.651 141.308H229.443C234.01 141.32 238.087 143.299 240.758 146.395Z" fill="#FE5244"/>
<path d="M226.721 141.32C226.463 143.154 224.799 144.562 222.786 144.562C221.303 144.562 220.013 143.797 219.329 142.668C221.238 141.806 223.38 141.32 225.637 141.32H226.721Z" fill="white"/>
<path d="M234.526 142.17C233.946 143.566 232.514 144.55 230.824 144.55C228.811 144.55 227.147 143.141 226.889 141.308H229.456C231.237 141.32 232.939 141.611 234.526 142.17Z" fill="white"/>
<path d="M231.623 135.905V141.417C231.623 142.279 229.791 142.971 227.546 142.971C227.133 142.971 226.734 142.947 226.359 142.91C224.682 142.716 223.47 142.121 223.47 141.417V135.905H231.623Z" fill="#A0505A"/>
<path d="M231.081 137.034C231.081 139.426 228.862 142.328 226.359 142.898C224.682 142.704 223.47 142.109 223.47 141.405V135.893H230.952L231.081 137.034Z" fill="#73325A"/>
<path d="M233.713 135.2V135.334C233.713 136.269 232.9 137.034 231.907 137.034H230.178C229.391 138.624 227.675 139.717 225.689 139.717H225.353C223.134 139.717 221.341 138.029 221.341 135.941V132.044C223.909 132.201 227.172 130.089 227.172 130.089C228.243 133.986 231.3 133.938 232.72 133.683C233.3 133.962 233.713 134.545 233.713 135.2Z" fill="#A0505A"/>
<path d="M231.172 135.796C231.069 135.796 230.979 135.711 230.979 135.613C230.979 134.836 231.649 134.205 232.475 134.205C232.578 134.205 232.668 134.29 232.668 134.387C232.668 134.484 232.578 134.569 232.475 134.569C231.869 134.569 231.366 135.031 231.366 135.613C231.366 135.711 231.275 135.796 231.172 135.796Z" fill="#73325A"/>
<path d="M231.623 137.034H231.907C232.9 137.034 233.713 136.269 233.713 135.334V135.2C233.713 134.532 233.313 133.962 232.72 133.683C232.333 133.755 231.804 133.804 231.236 133.768C229.765 133.658 227.946 132.906 227.172 130.089C227.172 130.089 223.909 132.201 221.341 132.043C220.864 132.019 220.413 131.91 220.013 131.691C217.884 130.55 223.031 125.208 228.94 126.009C233.661 126.653 233.558 131.971 233.468 133.233C233.7 133.209 233.932 133.197 234.165 133.197C237.622 133.197 240.421 135.698 240.421 138.794C240.421 140.81 239.234 142.582 237.441 143.566C235.725 142.497 233.752 141.769 231.623 141.465V137.034Z" fill="#FFCF2D"/>
<path d="M223.947 135.929C223.922 135.929 223.896 135.929 223.883 135.917C223.78 135.88 223.728 135.771 223.767 135.686C223.767 135.674 224.154 134.69 223.509 133.634C222.954 132.724 221.729 132.881 221.677 132.894C221.574 132.906 221.471 132.845 221.458 132.736C221.445 132.639 221.509 132.541 221.625 132.529C221.69 132.517 223.161 132.323 223.857 133.452C224.593 134.654 224.154 135.771 224.141 135.808C224.089 135.88 224.025 135.929 223.947 135.929Z" fill="#73325A"/>
<path d="M228.348 133.621C228.309 133.621 228.27 133.609 228.231 133.585C227.109 132.772 225.613 132.869 225.6 132.869C225.497 132.881 225.406 132.796 225.393 132.699C225.38 132.602 225.471 132.517 225.574 132.505C225.638 132.505 227.225 132.396 228.464 133.294C228.554 133.354 228.567 133.464 228.502 133.549C228.451 133.597 228.399 133.621 228.348 133.621Z" fill="#73325A"/>
<path d="M223.276 136.342C223.276 136.342 223.586 138.259 225.689 136.39C225.689 136.39 224.218 136.572 223.276 136.342Z" fill="white"/>
<path d="M226.515 134.726C226.665 134.726 226.786 134.471 226.786 134.156C226.786 133.841 226.665 133.585 226.515 133.585C226.365 133.585 226.244 133.841 226.244 134.156C226.244 134.471 226.365 134.726 226.515 134.726Z" fill="#73325A"/>
<path d="M222.49 134.63C222.618 134.63 222.722 134.418 222.722 134.156C222.722 133.895 222.618 133.683 222.49 133.683C222.361 133.683 222.257 133.895 222.257 134.156C222.257 134.418 222.361 134.63 222.49 134.63Z" fill="#73325A"/>
<path d="M247.891 118.615H207.459C206.221 118.615 205.228 117.668 205.228 116.514V96.1402C205.228 94.9746 206.234 94.0397 207.459 94.0397H247.891C249.129 94.0397 250.123 94.9867 250.123 96.1402V116.514C250.123 117.668 249.117 118.615 247.891 118.615Z" fill="#66B0F0"/>
<path d="M239.661 118.615H214.981C217.471 115.494 221.277 113.503 225.547 113.503H229.095C233.365 113.503 237.171 115.494 239.661 118.615Z" fill="#FFCF2D"/>
<path d="M226.011 117.57H226.566C228.979 117.57 230.939 115.725 230.939 113.454V110.528C230.939 110.516 230.927 110.504 230.914 110.504H222.799C222.786 110.504 222.773 110.516 222.773 110.528V114.547C222.786 116.223 224.231 117.57 226.011 117.57Z" fill="white"/>
<path d="M222.787 110.504V114.45C222.787 114.499 222.787 114.559 222.787 114.608C222.903 116.866 228.876 115.98 230.669 110.504H222.787Z" fill="#FFCF2D"/>
<path d="M233.3 108.743C233.3 109.229 233.094 109.666 232.746 109.994C232.41 110.309 231.946 110.504 231.417 110.504H229.65C229.017 112.082 227.392 113.199 225.496 113.199H224.115C222.193 113.199 220.645 111.73 220.645 109.933V104.833C222.632 104.991 224.309 103.486 224.373 103.425C224.347 103.51 223.341 106.181 225.625 106.327C227.895 106.473 228.643 104.931 228.669 104.87C228.669 104.931 228.682 106.995 230.475 107.104H231.417C232.462 107.104 233.3 107.772 233.3 108.743Z" fill="white"/>
<path d="M230.643 107.104H230.604C230.566 107.104 230.527 107.104 230.488 107.104C228.695 106.995 228.682 104.943 228.682 104.87C228.656 104.931 227.895 106.473 225.638 106.327C223.367 106.181 224.361 103.51 224.386 103.425C224.322 103.474 222.645 104.991 220.658 104.833C220.22 104.797 219.781 104.688 219.329 104.457C216.427 102.976 218.297 99.9283 221.148 99.8919C223.419 99.8676 224.386 101.033 224.386 101.033C224.386 101.033 224.877 98.6413 227.663 99.0541C230.45 99.4669 229.947 101.786 229.947 101.786C229.947 101.786 232.282 100.766 233.572 102.648C235.094 104.858 232.81 107.104 230.643 107.104Z" fill="#FE5244"/>
<path d="M223.019 109.326C223.006 109.326 222.993 109.326 222.967 109.326C222.864 109.302 222.8 109.205 222.825 109.107C222.825 109.095 223.135 107.893 222.58 106.91C221.974 105.866 220.929 106.036 220.89 106.036C220.787 106.048 220.684 105.987 220.671 105.89C220.645 105.793 220.723 105.696 220.826 105.684C220.839 105.684 222.193 105.453 222.929 106.74C223.561 107.845 223.225 109.144 223.212 109.192C223.174 109.265 223.096 109.326 223.019 109.326Z" fill="#FFCF2D"/>
<path d="M223.702 110.734C223.431 110.734 223.186 110.698 223.005 110.649C222.902 110.625 222.838 110.528 222.864 110.431C222.889 110.334 222.993 110.273 223.096 110.297C223.16 110.309 224.631 110.673 225.173 109.605C225.224 109.52 225.328 109.472 225.431 109.521C225.534 109.569 225.573 109.666 225.521 109.763C225.147 110.528 224.36 110.734 223.702 110.734Z" fill="#FFCF2D"/>
<path d="M225.573 107.869C225.723 107.869 225.844 107.613 225.844 107.298C225.844 106.983 225.723 106.728 225.573 106.728C225.424 106.728 225.302 106.983 225.302 107.298C225.302 107.613 225.424 107.869 225.573 107.869Z" fill="#FFCF2D"/>
<path d="M221.561 107.771C221.689 107.771 221.793 107.56 221.793 107.298C221.793 107.037 221.689 106.825 221.561 106.825C221.433 106.825 221.329 107.037 221.329 107.298C221.329 107.56 221.433 107.771 221.561 107.771Z" fill="#FFCF2D"/>
<path d="M230.449 109.411C230.346 109.411 230.256 109.326 230.256 109.229C230.256 108.452 230.927 107.821 231.752 107.821C231.856 107.821 231.946 107.906 231.946 108.003C231.946 108.1 231.856 108.185 231.752 108.185C231.146 108.185 230.643 108.646 230.643 109.229C230.643 109.326 230.553 109.411 230.449 109.411Z" fill="#FFCF2D"/>
<path d="M196.881 118.615H156.45C155.211 118.615 154.218 117.668 154.218 116.515V96.1406C154.218 94.975 155.224 94.04 156.45 94.04H196.881C198.12 94.04 199.113 94.9871 199.113 96.1406V116.515C199.126 117.668 198.12 118.615 196.881 118.615Z" fill="#FFCF2D"/>
<path d="M187.115 118.615H162.036C164.564 115.057 168.434 112.787 172.769 112.787H176.381C180.716 112.787 184.574 115.057 187.115 118.615Z" fill="white"/>
<path d="M187.115 118.614H162.036C162.113 118.505 162.19 118.408 162.268 118.299C162.281 118.275 162.294 118.251 162.319 118.239H186.844C186.857 118.263 186.87 118.275 186.896 118.299C186.96 118.396 187.038 118.505 187.115 118.614Z" fill="#FEB040"/>
<path d="M186.057 117.291H163.093C163.209 117.158 163.325 117.036 163.442 116.915H185.709C185.825 117.036 185.941 117.158 186.057 117.291Z" fill="#FEB040"/>
<path d="M184.636 115.907H164.512C164.667 115.774 164.821 115.652 164.976 115.531H184.172C184.327 115.652 184.482 115.774 184.636 115.907Z" fill="#FEB040"/>
<path d="M182.47 114.389H166.667C166.899 114.256 167.144 114.134 167.389 114.013H181.735C181.993 114.134 182.225 114.256 182.47 114.389Z" fill="#FEB040"/>
<path d="M178.575 108.246V113.673C178.575 114.231 176.743 114.681 174.498 114.681C172.305 114.681 170.512 114.256 170.422 113.709C170.422 113.697 170.422 113.685 170.422 113.673V108.246H178.575Z" fill="#E57281"/>
<path d="M178.523 108.246V108.367C178.523 111.038 175.001 114.098 172.46 114.45C172.06 114.511 170.822 114.28 170.435 113.697C170.435 113.685 170.435 113.673 170.435 113.661V108.234H178.523V108.246Z" fill="#9A3B82"/>
<path d="M180.793 106.534V106.655C180.793 107.59 179.98 108.355 178.986 108.355H177.426C176.922 110.055 175.271 111.293 173.31 111.293H171.646C169.801 111.293 168.292 109.885 168.292 108.136V101.228C171.388 102.041 176.922 101.276 176.922 101.276C176.922 101.276 176.419 102.976 177.374 104.822H178.999C179.98 104.834 180.793 105.599 180.793 106.534Z" fill="#E57281"/>
<path d="M178.922 104.615H177.451C176.2 102.624 176.91 101.3 176.91 101.3C176.91 101.3 171.375 102.053 168.279 101.252C166.873 100.888 165.97 100.196 166.305 98.9693C167.376 95.0354 178.909 99.2243 179.709 100.645C180.522 102.065 178.922 104.615 178.922 104.615Z" fill="white" stroke="#FEB040" stroke-width="0.738102" stroke-miterlimit="10"/>
<path d="M173.194 108.342C173.156 108.379 173.117 108.391 173.065 108.391C173.014 108.391 172.962 108.367 172.923 108.33L172.743 108.148C172.188 108.609 171.659 108.84 171.169 108.84C171.117 108.84 171.066 108.84 171.027 108.828C170.485 108.779 170.214 108.439 170.201 108.427C170.137 108.342 170.15 108.233 170.24 108.172C170.33 108.112 170.447 108.124 170.511 108.209C170.524 108.221 170.705 108.439 171.079 108.476C171.491 108.512 171.969 108.306 172.485 107.881L172.382 107.772C172.304 107.699 172.317 107.578 172.395 107.517C172.472 107.444 172.601 107.456 172.665 107.529L173.207 108.087C173.285 108.16 173.272 108.269 173.194 108.342Z" fill="#9A3B82"/>
<path d="M175.155 104.724C175.103 104.724 175.051 104.712 175.013 104.675C173.877 103.632 172.433 103.838 172.42 103.838C172.316 103.85 172.213 103.79 172.2 103.692C172.187 103.595 172.252 103.498 172.355 103.486C172.42 103.474 174.006 103.231 175.284 104.421C175.361 104.493 175.361 104.603 175.284 104.675C175.258 104.712 175.206 104.724 175.155 104.724Z" fill="#9A3B82"/>
<path d="M170.756 107.274C170.743 107.274 170.717 107.274 170.704 107.262C170.601 107.238 170.55 107.128 170.575 107.031C170.575 107.019 170.975 105.781 170.33 104.724C169.776 103.814 168.524 104.093 168.511 104.105C168.408 104.129 168.305 104.069 168.279 103.972C168.253 103.874 168.318 103.777 168.421 103.753C168.95 103.632 170.111 103.632 170.666 104.554C171.401 105.756 170.975 107.092 170.95 107.153C170.911 107.226 170.846 107.274 170.756 107.274Z" fill="#9A3B82"/>
<path d="M169.311 105.854C169.44 105.854 169.544 105.642 169.544 105.38C169.544 105.119 169.44 104.907 169.311 104.907C169.183 104.907 169.079 105.119 169.079 105.38C169.079 105.642 169.183 105.854 169.311 105.854Z" fill="#9A3B82"/>
<path d="M173.323 105.951C173.473 105.951 173.594 105.695 173.594 105.38C173.594 105.065 173.473 104.81 173.323 104.81C173.173 104.81 173.052 105.065 173.052 105.38C173.052 105.695 173.173 105.951 173.323 105.951Z" fill="#9A3B82"/>
<path d="M177.981 107.153C177.878 107.153 177.788 107.068 177.788 106.971C177.788 106.182 178.471 105.538 179.31 105.538C179.413 105.538 179.503 105.623 179.503 105.72C179.503 105.817 179.413 105.902 179.31 105.902C178.678 105.902 178.175 106.376 178.175 106.971C178.175 107.068 178.097 107.153 177.981 107.153Z" fill="#9A3B82"/>
<path d="M192.11 214.949L178.879 241.413H138.9L154.966 214.949H192.11Z" fill="white" stroke="#3FB1B5" stroke-width="0.964957" stroke-miterlimit="10"/>
<path d="M183.344 221.405C183.344 221.405 181.604 218.517 177.427 219.262C174.304 219.808 170.606 222.311 168.333 220.966C166.059 219.622 164.046 217.944 161.101 218.743C158.157 219.542 155.979 221.073 155.979 221.073" stroke="#3FB1B5" stroke-width="0.964957" stroke-miterlimit="10"/>
<path d="M181.975 225.532C181.975 225.532 180.235 222.644 176.058 223.389C172.935 223.935 169.237 226.438 166.964 225.093C164.69 223.749 162.677 222.071 159.732 222.87C156.788 223.669 154.61 225.2 154.61 225.2" stroke="#3FB1B5" stroke-width="0.964957" stroke-miterlimit="10"/>
<path d="M207.148 333.715C207.148 337.269 196.999 340.144 184.289 340.144C171.579 340.144 161.731 337.269 161.731 333.715C161.731 330.161 171.579 327.285 184.289 327.285C196.999 327.285 207.148 330.174 207.148 333.715Z" fill="#FE5244"/>
<path d="M201.299 329.388V375.313L199.861 368.684C198.313 361.549 191.835 356.451 184.33 356.451C182.07 356.451 179.851 356.917 177.838 357.795C177.769 357.822 177.701 357.862 177.618 357.888L172.345 339.199L169.415 328.803C173.427 327.858 178.618 327.285 184.288 327.285C191.027 327.285 197.094 328.097 201.299 329.388Z" fill="#A0505A"/>
<path d="M201.299 329.388V338.041C197.094 339.332 191.027 340.144 184.288 340.144C179.919 340.144 175.838 339.798 172.345 339.212L169.415 328.816C173.427 327.871 178.618 327.298 184.288 327.298C191.027 327.285 197.094 328.097 201.299 329.388Z" fill="#73325A"/>
<path d="M200.288 373.968C200.657 374.074 204.136 375.019 207.218 375.019C208.888 375.019 210.436 374.74 211.313 373.888C212.066 373.156 212.244 372.091 211.847 370.747C211.491 369.549 210.806 368.803 209.806 368.537C207.971 368.058 205.423 369.389 203.41 370.786C206.546 367.086 209.642 362.387 208.491 359.312C208.08 358.221 207.149 357.489 205.985 357.356C205.013 357.249 204.109 357.582 203.684 358.207C201.712 361.123 200.096 373.089 200.027 373.595L200.288 373.968ZM204.259 358.58C204.506 358.221 205.026 358.008 205.629 358.008C205.725 358.008 205.821 358.008 205.916 358.021C206.355 358.074 207.409 358.314 207.861 359.539C208.163 360.351 208.272 361.841 207.053 364.344C205.903 366.713 203.821 369.495 200.863 372.65C201.301 369.615 202.698 360.883 204.259 358.58ZM210.833 373.422C209.929 374.301 207.875 374.567 204.876 374.194C203.301 373.994 201.835 373.675 201.055 373.475C201.643 372.969 202.739 372.051 204.013 371.199C206.451 369.562 208.395 368.856 209.642 369.189C210.395 369.389 210.902 369.961 211.203 370.933C211.532 372.051 211.408 372.863 210.833 373.422Z" fill="#FFCF2D"/>
<path d="M172.483 361.615L169.319 365.063C165.731 368.976 165.142 374.674 167.868 379.2L181.796 402.415C184.522 406.954 189.521 409.736 194.917 409.736H200.683C204.861 409.736 207.97 406.009 207.107 402.042L199.848 368.697C198.3 361.562 191.822 356.463 184.317 356.463C179.811 356.45 175.496 358.327 172.483 361.615Z" fill="white" stroke="#3FB1B5" stroke-width="0.964957" stroke-miterlimit="10"/>
<path d="M183.262 371.652L201.245 405.516C202.094 407.047 203.149 408.032 204.354 408.658C203.313 409.337 202.053 409.749 200.684 409.749H194.918C189.508 409.749 184.509 406.954 181.797 402.428L167.868 379.199C167.306 378.254 166.882 377.269 166.594 376.244C164.622 369.123 172.963 363.532 179.222 367.711C180.646 368.657 182.043 369.935 183.262 371.652Z" fill="#3FB1B5"/>
<path d="M183.303 371.732H166.704C166.786 371.479 166.882 371.24 166.991 371.014H182.769C182.933 371.227 183.097 371.439 183.262 371.666L183.303 371.732Z" fill="white"/>
<path d="M185.741 376.311H166.622C166.622 376.285 166.608 376.258 166.608 376.245C166.553 376.032 166.499 375.806 166.458 375.593H185.371L185.741 376.311Z" fill="white"/>
<path d="M188.178 380.903H168.895L168.457 380.171H187.795L188.178 380.903Z" fill="white"/>
<path d="M190.616 385.496H171.647L171.209 384.764H190.232L190.616 385.496Z" fill="white"/>
<path d="M193.055 390.075H174.402L173.963 389.356H192.672L193.055 390.075Z" fill="white"/>
<path d="M195.492 394.668H177.154L176.715 393.936H195.095L195.492 394.668Z" fill="white"/>
<path d="M197.93 399.26H179.907L179.469 398.528H197.533L197.93 399.26Z" fill="white"/>
<path d="M200.353 403.84H182.768C182.59 403.601 182.412 403.361 182.248 403.122H199.97L200.353 403.84Z" fill="white"/>
<path d="M203.957 408.432H188.673C188.18 408.219 187.701 407.98 187.235 407.714H202.971C203.286 407.98 203.615 408.219 203.957 408.432Z" fill="white"/>
<path d="M151.049 332.769C150.925 336.284 140.667 339.132 128.039 339.132C115.411 339.132 105.153 336.297 105.03 332.769V305.095H151.049V332.769Z" fill="#73325A"/>
<path d="M147.994 337.362L147.926 340.65L147.269 372.744V371.812C147.269 363.572 140.393 356.89 131.915 356.89H130.984C126.656 356.89 122.753 358.527 119.863 361.163L117.849 347.931L116.603 339.745C119.972 340.29 123.876 340.597 128.026 340.597C136.572 340.583 144.009 339.279 147.994 337.362Z" fill="#A0505A"/>
<path d="M147.994 337.362L147.926 340.65C142.831 344.164 127.094 348.49 117.863 347.918L116.617 339.731C119.986 340.264 123.889 340.583 128.039 340.583C136.572 340.583 144.009 339.279 147.994 337.362Z" fill="#73325A"/>
<path d="M132.614 410.176H135.161C141.845 410.176 147.268 404.905 147.268 398.409V371.812C147.268 363.573 140.393 356.89 131.915 356.89H130.984C121.123 356.89 113.521 365.343 114.85 374.847L118.068 397.85C119.068 404.905 125.273 410.176 132.614 410.176Z" fill="white" stroke="#3FB1B5" stroke-width="0.964957" stroke-miterlimit="10"/>
<path d="M143.461 406.968C141.297 408.951 138.366 410.176 135.161 410.176H132.614C125.273 410.176 119.068 404.905 118.082 397.849L114.864 374.847C114.809 374.408 114.754 373.969 114.74 373.543C115.562 368.444 120.095 364.544 125.574 364.544C128.272 364.544 130.765 365.502 132.696 367.1C134.627 368.697 135.983 370.947 136.407 373.543L140.64 401.617C140.955 403.707 141.968 405.57 143.461 406.968Z" fill="#3FB1B5"/>
<path d="M135.131 369.987H115.999C116.135 369.735 116.3 369.495 116.464 369.269H134.679C134.844 369.495 134.994 369.735 135.131 369.987Z" fill="white"/>
<path d="M136.556 374.567H114.82C114.793 374.327 114.766 374.088 114.752 373.848H136.447L136.556 374.567Z" fill="white"/>
<path d="M137.255 379.159H115.465L115.355 378.441H137.146L137.255 379.159Z" fill="white"/>
<path d="M137.94 383.752H116.108L115.999 383.02H137.83L137.94 383.752Z" fill="white"/>
<path d="M138.639 388.331H116.753L116.644 387.612H138.53L138.639 388.331Z" fill="white"/>
<path d="M139.324 392.924H117.383L117.287 392.205H139.214L139.324 392.924Z" fill="white"/>
<path d="M140.022 397.516H118.026L117.93 396.784H139.912L140.022 397.516Z" fill="white"/>
<path d="M140.721 402.095H119.382C119.259 401.856 119.15 401.616 119.054 401.377H140.598L140.639 401.616C140.666 401.776 140.694 401.936 140.721 402.095Z" fill="white"/>
<path d="M143.173 406.688H122.998C122.725 406.461 122.451 406.209 122.204 405.969H142.543C142.735 406.222 142.954 406.461 143.173 406.688Z" fill="white"/>
<path d="M161.006 188.926V211.343C160.006 208.8 152.09 209.159 143.379 212.368C135.915 215.123 130.313 218.903 129.491 221.526V189.977C129.491 180.593 134.655 172.207 142.585 167.627C152.884 169.371 161.006 178.09 161.006 188.926Z" fill="#FFCF2D"/>
<path d="M128.889 168.639C121.877 173.378 117.412 181.245 117.412 189.977V216.001H78.4194L83.802 193.478C86.0892 183.88 93.2386 176.226 102.552 172.965L128.889 168.639Z" fill="#FFCF2D"/>
<path d="M207.751 280.03V332.278C207.751 328.723 196.999 325.848 184.289 325.848C171.579 325.848 161.28 328.723 161.28 332.278V307.239C161.28 306.067 160.294 305.109 159.089 305.109H89.1838C68.1604 305.109 52.6153 286.086 57.3678 266.186L74.2414 195.528C76.9258 184.253 86.3213 175.667 98.0589 173.724L102.551 172.978C93.2379 176.239 86.0885 183.894 83.8013 193.491L78.4187 216.014H117.411V189.977C117.411 181.245 121.89 173.364 128.889 168.639L135.052 167.627C136.326 167.414 137.572 167.321 138.818 167.321C138.983 167.321 139.133 167.321 139.298 167.321C139.448 167.321 139.599 167.334 139.736 167.334C139.763 167.334 139.791 167.334 139.818 167.334C139.928 167.334 140.051 167.347 140.161 167.347C140.174 167.347 140.202 167.347 140.215 167.347C140.284 167.347 140.352 167.361 140.407 167.361C140.53 167.374 140.64 167.374 140.763 167.387C140.9 167.401 141.051 167.414 141.188 167.427C141.325 167.441 141.448 167.454 141.585 167.467C141.612 167.467 141.64 167.48 141.681 167.48C141.818 167.494 141.968 167.52 142.105 167.534C142.119 167.534 142.133 167.534 142.133 167.534C142.283 167.56 142.434 167.574 142.585 167.6C134.655 172.179 129.491 180.566 129.491 189.95V253.912H180.906C195.726 253.939 207.751 265.613 207.751 280.03Z" fill="#FE5244"/>
<path d="M129.779 168.053C122.766 172.792 117.398 181.244 117.398 189.977V216.001H78.4048L83.7873 193.478C86.0746 183.88 92.6213 176.08 101.948 172.818" stroke="white" stroke-width="1.15795" stroke-miterlimit="10" stroke-linecap="round"/>
<path d="M161.28 299.211C161.28 291.797 163.978 284.622 168.895 278.964" stroke="white" stroke-width="1.15795" stroke-miterlimit="10" stroke-linecap="round"/>
<path d="M104.318 296.563C104.249 296.563 104.181 296.549 104.126 296.509L102.318 295.551C102.113 295.444 102.044 295.205 102.154 295.005C102.263 294.805 102.51 294.739 102.715 294.845L104.523 295.804C104.729 295.91 104.797 296.15 104.687 296.35C104.605 296.483 104.468 296.563 104.318 296.563ZM106.126 296.11C105.975 296.11 105.838 296.03 105.769 295.897C105.66 295.697 105.728 295.458 105.934 295.351L107.742 294.393C107.947 294.286 108.194 294.366 108.303 294.553C108.413 294.752 108.344 294.992 108.139 295.098L106.331 296.057C106.262 296.083 106.194 296.11 106.126 296.11ZM100.702 294.659C100.633 294.659 100.565 294.646 100.51 294.606L98.7023 293.647C98.4968 293.541 98.4284 293.301 98.5379 293.102C98.6475 292.902 98.894 292.835 99.0995 292.942L100.907 293.9C101.113 294.007 101.181 294.246 101.072 294.446C100.99 294.579 100.853 294.659 100.702 294.659ZM109.728 294.193C109.577 294.193 109.44 294.113 109.372 293.98C109.262 293.78 109.33 293.541 109.536 293.434L111.344 292.476C111.659 292.316 111.946 292.13 112.234 291.93C112.412 291.797 112.672 291.837 112.809 292.01C112.946 292.183 112.905 292.436 112.727 292.569C112.412 292.795 112.083 292.995 111.741 293.181L109.933 294.14C109.865 294.18 109.796 294.193 109.728 294.193ZM97.1272 292.689C97.045 292.689 96.9629 292.662 96.8807 292.609C96.3054 292.196 95.7713 291.717 95.3193 291.171C95.1687 290.998 95.1961 290.745 95.3741 290.612C95.5522 290.466 95.8124 290.493 95.9494 290.666C96.3602 291.158 96.8396 291.584 97.36 291.957C97.5381 292.09 97.5792 292.343 97.4559 292.516C97.3874 292.636 97.2642 292.689 97.1272 292.689ZM113.96 291.291C113.864 291.291 113.782 291.265 113.699 291.198C113.521 291.065 113.494 290.812 113.645 290.639C114.056 290.146 114.398 289.614 114.672 289.028C114.768 288.829 115.014 288.735 115.22 288.829C115.425 288.922 115.521 289.161 115.425 289.361C115.124 290 114.74 290.599 114.288 291.131C114.193 291.238 114.083 291.291 113.96 291.291ZM94.5523 289.641C94.4017 289.641 94.251 289.561 94.1826 289.414C93.8812 288.775 93.6621 288.11 93.5251 287.418C93.4841 287.205 93.6347 286.992 93.8539 286.952C94.073 286.912 94.2921 287.058 94.3332 287.271C94.4565 287.897 94.6482 288.496 94.9222 289.068C95.018 289.268 94.9222 289.507 94.7167 289.601C94.6619 289.627 94.6071 289.641 94.5523 289.641ZM115.658 287.697C115.631 287.697 115.603 287.697 115.59 287.697C115.37 287.657 115.22 287.444 115.261 287.231C115.343 286.792 115.384 286.353 115.384 285.913V285.314C115.384 285.088 115.562 284.915 115.795 284.915C116.028 284.915 116.206 285.088 116.206 285.314V285.913C116.206 286.406 116.165 286.898 116.069 287.378C116.028 287.564 115.85 287.697 115.658 287.697ZM93.7991 285.754C93.5662 285.754 93.3882 285.581 93.3882 285.354V283.358C93.3882 283.131 93.5662 282.958 93.7991 282.958C94.0319 282.958 94.2099 283.131 94.2099 283.358V285.354C94.2099 285.567 94.0182 285.754 93.7991 285.754ZM115.781 283.717C115.548 283.717 115.37 283.544 115.37 283.318V281.321C115.37 281.095 115.548 280.922 115.781 280.922C116.014 280.922 116.192 281.095 116.192 281.321V283.318C116.192 283.544 116.014 283.717 115.781 283.717ZM93.7991 281.76C93.5662 281.76 93.3882 281.587 93.3882 281.361V279.364C93.3882 279.138 93.5662 278.965 93.7991 278.965C94.0319 278.965 94.2099 279.138 94.2099 279.364V281.361C94.2099 281.574 94.0182 281.76 93.7991 281.76ZM115.781 279.723C115.548 279.723 115.37 279.55 115.37 279.324V277.327C115.37 277.101 115.548 276.928 115.781 276.928C116.014 276.928 116.192 277.101 116.192 277.327V279.324C116.192 279.55 116.014 279.723 115.781 279.723ZM93.7991 277.767C93.5662 277.767 93.3882 277.594 93.3882 277.367V275.371C93.3882 275.144 93.5662 274.971 93.7991 274.971C94.0319 274.971 94.2099 275.144 94.2099 275.371V277.367C94.2099 277.58 94.0182 277.767 93.7991 277.767ZM115.781 275.73C115.548 275.73 115.37 275.557 115.37 275.331V273.334C115.37 273.108 115.548 272.935 115.781 272.935C116.014 272.935 116.192 273.108 116.192 273.334V275.331C116.192 275.557 116.014 275.73 115.781 275.73ZM93.7991 273.773C93.5662 273.773 93.3882 273.6 93.3882 273.374V271.657H94.4976C94.7304 271.657 94.9085 271.83 94.9085 272.056C94.9085 272.282 94.7304 272.455 94.4976 272.455H94.2099V273.374C94.2099 273.587 94.0182 273.773 93.7991 273.773ZM115.042 272.455H112.987C112.754 272.455 112.576 272.282 112.576 272.056C112.576 271.83 112.754 271.657 112.987 271.657H115.042C115.275 271.657 115.453 271.83 115.453 272.056C115.453 272.282 115.275 272.455 115.042 272.455ZM110.933 272.455H108.878C108.646 272.455 108.468 272.282 108.468 272.056C108.468 271.83 108.646 271.657 108.878 271.657H110.933C111.166 271.657 111.344 271.83 111.344 272.056C111.344 272.282 111.166 272.455 110.933 272.455ZM106.824 272.455H104.77C104.537 272.455 104.359 272.282 104.359 272.056C104.359 271.83 104.537 271.657 104.77 271.657H106.824C107.057 271.657 107.235 271.83 107.235 272.056C107.235 272.282 107.057 272.455 106.824 272.455ZM102.715 272.455H100.661C100.428 272.455 100.25 272.282 100.25 272.056C100.25 271.83 100.428 271.657 100.661 271.657H102.715C102.948 271.657 103.126 271.83 103.126 272.056C103.126 272.282 102.948 272.455 102.715 272.455ZM98.6064 272.455H96.552C96.3192 272.455 96.1411 272.282 96.1411 272.056C96.1411 271.83 96.3192 271.657 96.552 271.657H98.6064C98.8392 271.657 99.0173 271.83 99.0173 272.056C99.0173 272.282 98.8392 272.455 98.6064 272.455Z" fill="white"/>
<path d="M65.5583 294.353C65.4076 294.353 65.2707 294.273 65.2022 294.14C65.0926 293.94 65.1611 293.701 65.3665 293.594L67.0374 292.702C67.0785 292.676 67.1196 292.662 67.1607 292.636C67.3524 292.529 67.6127 292.596 67.7223 292.782C67.8318 292.968 67.7633 293.221 67.5716 293.328C67.5305 293.355 67.4894 293.381 67.4346 293.394L65.7637 294.286C65.6952 294.34 65.6267 294.353 65.5583 294.353ZM69.0234 292.223C68.9138 292.223 68.8042 292.183 68.7221 292.09C68.5714 291.93 68.5851 291.677 68.7495 291.531C69.2288 291.105 69.6534 290.612 70.0232 290.093C70.1464 289.907 70.4067 289.867 70.5984 289.987C70.7902 290.107 70.8313 290.359 70.708 290.546C70.3108 291.118 69.8314 291.651 69.311 292.13C69.2151 292.196 69.1193 292.223 69.0234 292.223ZM71.3106 288.948C71.2558 288.948 71.2147 288.935 71.16 288.922C70.9545 288.842 70.8449 288.616 70.9271 288.403C71.16 287.804 71.3243 287.191 71.4202 286.566C71.4476 286.353 71.653 286.193 71.8858 286.22C72.105 286.246 72.2693 286.446 72.242 286.672C72.1461 287.364 71.968 288.043 71.7078 288.695C71.6256 288.855 71.475 288.948 71.3106 288.948ZM71.8996 285.035C71.6667 285.035 71.4887 284.862 71.4887 284.635V282.639C71.4887 282.412 71.6667 282.239 71.8996 282.239C72.1324 282.239 72.3104 282.412 72.3104 282.639V284.635C72.3104 284.848 72.1324 285.035 71.8996 285.035ZM71.8996 281.041C71.6667 281.041 71.4887 280.868 71.4887 280.642V278.645C71.4887 278.419 71.6667 278.246 71.8996 278.246C72.1324 278.246 72.3104 278.419 72.3104 278.645V280.642C72.3104 280.855 72.1324 281.041 71.8996 281.041ZM71.8996 277.048C71.6667 277.048 71.4887 276.875 71.4887 276.649V274.652C71.4887 274.425 71.6667 274.252 71.8996 274.252C72.1324 274.252 72.3104 274.425 72.3104 274.652V276.649C72.3104 276.861 72.1324 277.048 71.8996 277.048ZM71.8996 273.054C71.6667 273.054 71.4887 272.881 71.4887 272.655V272.455H70.4615C70.2286 272.455 70.0506 272.282 70.0506 272.056C70.0506 271.83 70.2286 271.657 70.4615 271.657H72.3104V272.655C72.3104 272.868 72.1324 273.054 71.8996 273.054ZM68.4071 272.455H66.3526C66.1198 272.455 65.9418 272.282 65.9418 272.056C65.9418 271.83 66.1198 271.657 66.3526 271.657H68.4071C68.6399 271.657 68.8179 271.83 68.8179 272.056C68.8179 272.282 68.6262 272.455 68.4071 272.455ZM64.2982 272.455H62.2438C62.011 272.455 61.8329 272.282 61.8329 272.056C61.8329 271.83 62.011 271.657 62.2438 271.657H64.2982C64.5311 271.657 64.7091 271.83 64.7091 272.056C64.7091 272.282 64.5174 272.455 64.2982 272.455ZM60.1894 272.455H58.135C57.9022 272.455 57.7241 272.282 57.7241 272.056C57.7241 271.83 57.9022 271.657 58.135 271.657H60.1894C60.4222 271.657 60.6003 271.83 60.6003 272.056C60.6003 272.282 60.4086 272.455 60.1894 272.455Z" fill="white"/>
<path d="M161.006 211.342C162.006 213.884 155.678 218.397 146.981 221.605C138.284 224.813 130.491 225.305 129.491 222.75C128.492 220.194 134.668 215.588 143.379 212.38C152.09 209.172 160.006 208.786 161.006 211.342Z" fill="#FE5244"/>
<path d="M165.867 293.926V295.337C165.415 295.231 164.936 295.177 164.456 295.177H162.69C160.074 295.177 157.841 293.553 156.992 291.291L162.005 290.638C164.045 290.372 165.867 291.916 165.867 293.926Z" fill="#73325A"/>
<path d="M170.497 301.048V311.884C170.497 314.413 168.388 316.463 165.786 316.463H160.54C159.239 316.463 158.061 315.957 157.212 315.119C156.363 314.293 155.829 313.148 155.829 311.884H159.239C160.362 311.884 161.266 311.005 161.266 309.914V307.078C161.266 305.987 160.362 305.108 159.239 305.108H141.804C134.997 305.108 129.478 299.744 129.478 293.128V221.538C130.299 218.916 135.901 215.122 143.365 212.38C148.46 210.503 153.295 209.598 156.623 209.678V289.307C156.623 292.555 159.335 295.191 162.677 295.191H164.444C167.785 295.178 170.497 297.8 170.497 301.048Z" fill="#A0505A"/>
<path d="M156.623 209.665V216.906C154.144 218.53 150.789 220.194 146.967 221.592C138.257 224.8 130.477 225.292 129.478 222.736V221.525C130.299 218.903 135.901 215.109 143.365 212.367C148.474 210.49 153.295 209.585 156.623 209.665Z" fill="#73325A"/>
<path d="M133.847 155.739L128.697 168.638L102.154 173.257L109.084 155.739H133.847Z" fill="#A0505A"/>
<path d="M133.846 155.739L131.066 162.715L104.742 166.708L109.084 155.739H133.846Z" fill="#73325A"/>
<path d="M149.406 129.489C149.406 131.233 146.297 133.163 142.708 134.787C137.819 137.01 132.053 138.701 132.053 138.701L128.163 145.822C133.45 148.551 135.518 153.45 136.34 156.871C136.86 159.054 136.86 160.611 136.86 160.611H99.5793C99.5793 160.611 89.7866 129.782 113.385 122.407C127.821 117.895 149.406 125.349 149.406 129.489Z" fill="white" stroke="#FFCF2D" stroke-width="1.15795" stroke-miterlimit="10" stroke-linecap="round"/>
<path d="M109.934 126.8C115.054 126.8 119.205 122.765 119.205 117.788C119.205 112.811 115.054 108.776 109.934 108.776C104.813 108.776 100.662 112.811 100.662 117.788C100.662 122.765 104.813 126.8 109.934 126.8Z" fill="white" stroke="#FFCF2D" stroke-width="1.15795" stroke-miterlimit="10" stroke-linecap="round"/>
<path d="M136.325 156.871C135.558 153.636 133.64 149.03 128.915 146.248H127.696C126.573 146.248 125.546 145.809 124.806 145.09C124.067 144.371 123.615 143.373 123.615 142.281C123.615 140.085 125.436 138.314 127.696 138.314L132.86 138.421H132.997C133.092 138.394 133.188 138.354 133.298 138.328C134.695 138.035 139.119 136.997 142.789 135.213L143.214 137.675L144.583 145.569C145.515 150.987 141.694 155.979 136.325 156.871Z" fill="#A0505A"/>
<path d="M143.201 137.662C138.708 139.433 132.847 138.408 132.847 138.408C132.847 138.408 138.366 137.343 142.776 135.2L143.201 137.662Z" fill="#73325A"/>
<path d="M130.874 143.04C130.874 141.522 129.614 140.298 128.052 140.298" stroke="#73325A" stroke-width="0.964957" stroke-miterlimit="10" stroke-linecap="round"/>
<path d="M145.378 311.883L161.279 440.5" stroke="#66B0F0" stroke-width="1.15795" stroke-miterlimit="10"/>
<path d="M76.446 311.883L60.5586 440.5" stroke="#66B0F0" stroke-width="1.15795" stroke-miterlimit="10"/>
<path d="M66.0098 396.332H155.815" stroke="#66B0F0" stroke-width="1.15795" stroke-miterlimit="10"/>
<path d="M62.6262 311.884H159.197C160.348 311.884 161.279 310.978 161.279 309.86V307.118C161.279 306 160.348 305.095 159.197 305.095H62.6262C61.4758 305.095 60.5444 306 60.5444 307.118V309.86C60.5581 310.978 61.4895 311.884 62.6262 311.884Z" fill="white" stroke="#FFCF2D" stroke-width="1.15795" stroke-miterlimit="10"/>
<path d="M82.2686 315.633V322.323C82.2686 325.553 79.5701 328.176 76.2471 328.176H60.8062" stroke="#66B0F0" stroke-width="1.10715" stroke-miterlimit="10"/>
<path d="M88.0269 315.706V377.083" stroke="#66B0F0" stroke-width="1.10715" stroke-miterlimit="10"/>
<path d="M60.0688 396.766C60.0688 385.899 71.1748 377.083 84.8668 377.083H91.0881C104.78 377.083 115.886 385.899 115.886 396.766" stroke="#66B0F0" stroke-width="1.10715" stroke-miterlimit="10"/>
<path d="M148.103 316.641H57.4067C52.8594 316.641 49.1865 313.059 49.1865 308.651H150.252L148.103 316.641Z" fill="#FFCF2D"/>
<path d="M59.5181 409.781C63.2161 409.781 66.214 406.868 66.214 403.273C66.214 399.679 63.2161 396.766 59.5181 396.766C55.8201 396.766 52.8223 399.679 52.8223 403.273C52.8223 406.868 55.8201 409.781 59.5181 409.781Z" fill="#FFCF2D"/>
<path d="M56.1083 329.839H69.55C70.6493 329.839 71.5362 328.977 71.5362 327.909V327.763C71.5362 326.695 70.6493 325.833 69.55 325.833H56.1083C55.009 325.833 54.1221 326.695 54.1221 327.763V327.909C54.1221 328.977 55.009 329.839 56.1083 329.839Z" fill="#FFCF2D"/>
<path d="M49.1873 308.894H113.537L92.0121 250.273C90.513 246.206 86.5528 243.486 82.1054 243.486H34.7957C30.0985 243.486 26.8254 248.003 28.3995 252.301L49.1873 308.894Z" stroke="#FFCF2D" stroke-width="1.10715" stroke-miterlimit="10"/>
<path d="M52.3727 308.894H108.315L87.5146 252.216C86.0655 248.282 82.2427 245.659 77.9452 245.659H30.0483" stroke="#FFCF2D" stroke-width="1.10715" stroke-miterlimit="10"/>
<path d="M115.773 409.781C119.471 409.781 122.469 406.868 122.469 403.273C122.469 399.679 119.471 396.766 115.773 396.766C112.075 396.766 109.077 399.679 109.077 403.273C109.077 406.868 112.075 409.781 115.773 409.781Z" fill="#FFCF2D"/>
</g>
<defs>
<clipPath id="clip0_9553_44457">
<rect width="395" height="440" fill="white" transform="translate(0 0.5)"/>
</clipPath>
</defs>
</svg>
