<svg width="88" height="88" viewBox="0 0 88 88" fill="none" xmlns="http://www.w3.org/2000/svg">
<path d="M11.4397 23.7598C10.9729 23.7598 10.5252 23.9452 10.1952 24.2753C9.86512 24.6053 9.67969 25.053 9.67969 25.5198C9.67969 25.9865 9.86512 26.4342 10.1952 26.7643C10.5252 27.0943 10.9729 27.2798 11.4397 27.2798C11.9065 27.2798 12.3541 27.0943 12.6842 26.7643C13.0143 26.4342 13.1997 25.9865 13.1997 25.5198C13.1997 25.053 13.0143 24.6053 12.6842 24.2753C12.3541 23.9452 11.9065 23.7598 11.4397 23.7598Z" fill="#9D9FCE"/>
<path d="M67.7609 10.5596C67.5275 10.5596 67.3036 10.6523 67.1386 10.8173C66.9736 10.9823 66.8809 11.2062 66.8809 11.4396C66.8809 11.673 66.9736 11.8968 67.1386 12.0618C67.3036 12.2269 67.5275 12.3196 67.7609 12.3196C67.9943 12.3196 68.2181 12.2269 68.3831 12.0618C68.5481 11.8968 68.6409 11.673 68.6409 11.4396C68.6409 11.2062 68.5481 10.9823 68.3831 10.8173C68.2181 10.6523 67.9943 10.5596 67.7609 10.5596Z" fill="#F1BC19"/>
<path d="M43.9995 11.4404C35.364 11.4404 27.0822 14.8708 20.9761 20.977C14.8699 27.0832 11.4395 35.365 11.4395 44.0004C11.4395 52.6359 14.8699 60.9176 20.9761 67.0238C27.0822 73.13 35.364 76.5604 43.9995 76.5604C52.6349 76.5604 60.9167 73.13 67.0228 67.0238C73.129 60.9176 76.5594 52.6359 76.5594 44.0004C76.5594 35.365 73.129 27.0832 67.0228 20.977C60.9167 14.8708 52.6349 11.4404 43.9995 11.4404Z" fill="#E4E4F9"/>
<path d="M73.0395 9.67969C72.106 9.67969 71.2106 10.0505 70.5505 10.7107C69.8904 11.3708 69.5195 12.2661 69.5195 13.1997C69.5195 14.1332 69.8904 15.0286 70.5505 15.6887C71.2106 16.3488 72.106 16.7197 73.0395 16.7197C73.9731 16.7197 74.8684 16.3488 75.5285 15.6887C76.1887 15.0286 76.5595 14.1332 76.5595 13.1997C76.5595 12.2661 76.1887 11.3708 75.5285 10.7107C74.8684 10.0505 73.9731 9.67969 73.0395 9.67969Z" fill="#F1BC19"/>
<path d="M76.5608 19.3604C76.094 19.3604 75.6463 19.5458 75.3163 19.8758C74.9862 20.2059 74.8008 20.6536 74.8008 21.1204C74.8008 21.5871 74.9862 22.0348 75.3163 22.3649C75.6463 22.6949 76.094 22.8804 76.5608 22.8804C77.0276 22.8804 77.4752 22.6949 77.8053 22.3649C78.1354 22.0348 78.3208 21.5871 78.3208 21.1204C78.3208 20.6536 78.1354 20.2059 77.8053 19.8758C77.4752 19.5458 77.0276 19.3604 76.5608 19.3604Z" fill="#9D9FCE"/>
<path d="M71.2797 65.1199C70.8129 65.1199 70.3652 65.3053 70.0352 65.6354C69.7051 65.9655 69.5197 66.4131 69.5197 66.8799C69.5197 67.3467 69.7051 67.7944 70.0352 68.1244C70.3652 68.4545 70.8129 68.6399 71.2797 68.6399C71.7465 68.6399 72.1941 68.4545 72.5242 68.1244C72.8543 67.7944 73.0397 67.3467 73.0397 66.8799C73.0397 66.4131 72.8543 65.9655 72.5242 65.6354C72.1941 65.3053 71.7465 65.1199 71.2797 65.1199ZM13.1997 51.9199C12.2661 51.9199 11.3708 52.2908 10.7107 52.9509C10.0505 53.611 9.67969 54.5064 9.67969 55.4399C9.67969 56.3735 10.0505 57.2688 10.7107 57.9289C11.3708 58.5891 12.2661 58.9599 13.1997 58.9599C14.1332 58.9599 15.0286 58.5891 15.6887 57.9289C16.3488 57.2688 16.7197 56.3735 16.7197 55.4399C16.7197 54.5064 16.3488 53.611 15.6887 52.9509C15.0286 52.2908 14.1332 51.9199 13.1997 51.9199Z" fill="#FBCD59"/>
<path d="M22.0002 74.7998C21.5335 74.7998 21.0858 74.9852 20.7557 75.3153C20.4257 75.6454 20.2402 76.093 20.2402 76.5598C20.2402 77.0266 20.4257 77.4742 20.7557 77.8043C21.0858 78.1344 21.5335 78.3198 22.0002 78.3198C22.467 78.3198 22.9147 78.1344 23.2447 77.8043C23.5748 77.4742 23.7602 77.0266 23.7602 76.5598C23.7602 76.093 23.5748 75.6454 23.2447 75.3153C22.9147 74.9852 22.467 74.7998 22.0002 74.7998Z" fill="#9D9FCE"/>
<path d="M16.2801 44.8799C15.6966 44.8799 15.137 45.1117 14.7244 45.5242C14.3119 45.9368 14.0801 46.4964 14.0801 47.0799C14.0801 47.6634 14.3119 48.2229 14.7244 48.6355C15.137 49.0481 15.6966 49.2799 16.2801 49.2799C16.8636 49.2799 17.4231 49.0481 17.8357 48.6355C18.2483 48.2229 18.4801 47.6634 18.4801 47.0799C18.4801 46.4964 18.2483 45.9368 17.8357 45.5242C17.4231 45.1117 16.8636 44.8799 16.2801 44.8799Z" fill="white"/>
<path d="M18.4796 58.0801C18.2462 58.0801 18.0224 58.1728 17.8574 58.3378C17.6923 58.5029 17.5996 58.7267 17.5996 58.9601C17.5996 59.1935 17.6923 59.4173 17.8574 59.5823C18.0224 59.7474 18.2462 59.8401 18.4796 59.8401C18.713 59.8401 18.9368 59.7474 19.1019 59.5823C19.2669 59.4173 19.3596 59.1935 19.3596 58.9601C19.3596 58.7267 19.2669 58.5029 19.1019 58.3378C18.9368 58.1728 18.713 58.0801 18.4796 58.0801Z" fill="#F1BC19"/>
<path d="M70.3995 29.04C70.1661 29.04 69.9423 29.1328 69.7773 29.2978C69.6122 29.4628 69.5195 29.6866 69.5195 29.92C69.5195 30.1534 69.6122 30.3773 69.7773 30.5423C69.9423 30.7073 70.1661 30.8 70.3995 30.8C70.6329 30.8 70.8567 30.7073 71.0218 30.5423C71.1868 30.3773 71.2795 30.1534 71.2795 29.92C71.2795 29.6866 71.1868 29.4628 71.0218 29.2978C70.8567 29.1328 70.6329 29.04 70.3995 29.04Z" fill="white"/>
<path d="M57.2006 24.6396C60.5974 24.6396 63.3606 27.4028 63.3606 30.7996V57.1996C63.3606 60.5965 60.5974 63.3596 57.2006 63.3596H30.8006C27.4038 63.3596 24.6406 60.5965 24.6406 57.1996V30.7996C24.6406 27.4028 27.4038 24.6396 30.8006 24.6396H57.2006Z" fill="#C0D078"/>
<path d="M57.1998 24.9918C60.4021 24.9918 63.0078 27.5974 63.0078 30.7998V57.1998C63.0078 60.4021 60.4021 63.0078 57.1998 63.0078H30.7998C27.5974 63.0078 24.9918 60.4021 24.9918 57.1998V30.7998C24.9918 27.5974 27.5974 24.9918 30.7998 24.9918H57.1998ZM57.1998 23.7598H30.7998C26.9119 23.7598 23.7598 26.9119 23.7598 30.7998V57.1998C23.7598 61.0876 26.9119 64.2398 30.7998 64.2398H57.1998C61.0876 64.2398 64.2398 61.0876 64.2398 57.1998V30.7998C64.2398 26.9119 61.0876 23.7598 57.1998 23.7598Z" fill="#472B29"/>
<path d="M55.4393 60.7193H32.5593C29.6474 60.7193 27.2793 58.3512 27.2793 55.4393V32.5593C27.2793 29.6474 29.6474 27.2793 32.5593 27.2793H55.4393C58.3512 27.2793 60.7193 29.6474 60.7193 32.5593V55.4393C60.7193 58.3512 58.3512 60.7193 55.4393 60.7193Z" fill="#FDFCEE"/>
<path d="M55.4393 60.7193H32.5593C29.6474 60.7193 27.2793 58.3512 27.2793 55.4393V32.5593C27.2793 29.6474 29.6474 27.2793 32.5593 27.2793H54.2293C54.4115 27.2793 54.5593 27.4271 54.5593 27.6093C54.5593 27.7915 54.4115 27.9393 54.2293 27.9393H32.5593C30.0117 27.9393 27.9393 30.0117 27.9393 32.5593V55.4393C27.9393 57.9869 30.0117 60.0593 32.5593 60.0593H55.4393C57.9869 60.0593 60.0593 57.9869 60.0593 55.4393V42.5693C60.0593 42.3871 60.2071 42.2393 60.3893 42.2393C60.5715 42.2393 60.7193 42.3871 60.7193 42.5693V55.4393C60.7193 58.3512 58.3512 60.7193 55.4393 60.7193ZM60.3893 36.9593C60.2071 36.9593 60.0593 36.8115 60.0593 36.6293V35.5047C60.0593 35.3225 60.2071 35.1747 60.3893 35.1747C60.5715 35.1747 60.7193 35.3225 60.7193 35.5047V36.6293C60.7193 36.8115 60.5715 36.9593 60.3893 36.9593Z" fill="#472B29"/>
<path d="M60.3905 41.3598C60.2084 41.3598 60.0605 41.212 60.0605 41.0298V38.1698C60.0605 37.9877 60.2084 37.8398 60.3905 37.8398C60.5727 37.8398 60.7205 37.9877 60.7205 38.1698V41.0298C60.7205 41.212 60.5727 41.3598 60.3905 41.3598Z" fill="#472B29"/>
<path d="M47.5197 32.8896C45.5067 32.8896 43.5761 33.6893 42.1527 35.1127C40.7293 36.5361 39.9297 38.4667 39.9297 40.4796C39.9297 42.4926 40.7293 44.4232 42.1527 45.8466C43.5761 47.27 45.5067 48.0696 47.5197 48.0696C49.5327 48.0696 51.4632 47.27 52.8866 45.8466C54.31 44.4232 55.1097 42.4926 55.1097 40.4796C55.1097 38.4667 54.31 36.5361 52.8866 35.1127C51.4632 33.6893 49.5327 32.8896 47.5197 32.8896Z" fill="#E1E0D8"/>
<path d="M47.5201 34.54C46.74 34.54 45.9676 34.6937 45.2469 34.9922C44.5263 35.2907 43.8714 35.7282 43.3199 36.2798C42.7683 36.8314 42.3307 37.4862 42.0322 38.2069C41.7337 38.9276 41.5801 39.7 41.5801 40.48C41.5801 41.2601 41.7337 42.0325 42.0322 42.7532C42.3307 43.4739 42.7683 44.1287 43.3199 44.6803C43.8714 45.2318 44.5263 45.6694 45.2469 45.9679C45.9676 46.2664 46.74 46.42 47.5201 46.42C48.3001 46.42 49.0725 46.2664 49.7932 45.9679C50.5139 45.6694 51.1687 45.2318 51.7203 44.6803C52.2719 44.1287 52.7094 43.4739 53.0079 42.7532C53.3064 42.0325 53.4601 41.2601 53.4601 40.48C53.4601 39.7 53.3064 38.9276 53.0079 38.2069C52.7094 37.4862 52.2719 36.8314 51.7203 36.2798C51.1687 35.7282 50.5139 35.2907 49.7932 34.9922C49.0725 34.6937 48.3001 34.54 47.5201 34.54Z" fill="#A8DBDB"/>
<path d="M40.5147 47.4852C39.8274 46.7979 38.7134 46.7979 38.0261 47.4852C37.5306 47.9806 33.9024 51.6089 33.4061 52.1052C32.7188 52.7925 32.7188 53.9066 33.4061 54.5938C34.0934 55.2811 35.2074 55.2811 35.8947 54.5938C36.391 54.0975 40.0193 50.4693 40.5147 49.9738C41.202 49.2866 41.202 48.1725 40.5147 47.4852Z" fill="#88AE45"/>
<path d="M40.514 49.9738C41.2013 49.2866 41.2013 48.1725 40.514 47.4852C39.8268 46.7979 38.7127 46.7979 38.0254 47.4852L40.514 49.9738Z" fill="#D1DC82"/>
<path d="M47.5196 48.3996C43.153 48.3996 39.5996 44.8461 39.5996 40.4796C39.5996 36.113 43.153 32.5596 47.5196 32.5596C51.8862 32.5596 55.4396 36.113 55.4396 40.4796C55.4396 44.8461 51.8862 48.3996 47.5196 48.3996ZM47.5196 33.2196C43.5165 33.2196 40.2596 36.4765 40.2596 40.4796C40.2596 44.4827 43.5165 47.7396 47.5196 47.7396C51.5227 47.7396 54.7796 44.4827 54.7796 40.4796C54.7796 36.4765 51.5227 33.2196 47.5196 33.2196Z" fill="#472B29"/>
<path d="M47.5213 46.6393C44.1245 46.6393 41.3613 43.8761 41.3613 40.4793C41.3613 37.0825 44.1245 34.3193 47.5213 34.3193C50.9181 34.3193 53.6813 37.0825 53.6813 40.4793C53.6813 43.8761 50.9181 46.6393 47.5213 46.6393ZM47.5213 34.7593C44.3674 34.7593 41.8013 37.3254 41.8013 40.4793C41.8013 43.6333 44.3674 46.1993 47.5213 46.1993C50.6752 46.1993 53.2413 43.6333 53.2413 40.4793C53.2413 37.3254 50.6752 34.7593 47.5213 34.7593Z" fill="#472B29"/>
<path d="M40.3066 47.0703L41.8187 45.5582L42.441 46.1805L40.9289 47.6926L40.3066 47.0703Z" fill="#472B29"/>
<path d="M34.6505 55.4397C34.0926 55.4397 33.5673 55.2223 33.173 54.8272C32.7779 54.433 32.5605 53.9076 32.5605 53.3497C32.5605 52.7918 32.7779 52.2664 33.173 51.8722L37.793 47.2522C38.5815 46.4628 39.9587 46.4628 40.7481 47.2522C41.1432 47.6473 41.3605 48.1718 41.3605 48.7297C41.3605 49.2876 41.1432 49.813 40.7481 50.2072L36.1281 54.8272C35.7338 55.2223 35.2085 55.4397 34.6505 55.4397ZM39.2705 47.2997C38.8886 47.2997 38.5296 47.4484 38.2594 47.7186L33.6394 52.3386C33.3693 52.6087 33.2205 52.9678 33.2205 53.3497C33.2205 53.7316 33.3693 54.0907 33.6394 54.3608C34.1797 54.9011 35.1213 54.9011 35.6617 54.3608L40.2817 49.7408C40.5518 49.4707 40.7005 49.1116 40.7005 48.7297C40.7005 48.3478 40.5518 47.9887 40.2817 47.7186C40.0115 47.4484 39.6525 47.2997 39.2705 47.2997Z" fill="#472B29"/>
<path d="M37.8809 47.8076L38.3475 47.3409L40.747 49.7403L40.2803 50.207L37.8809 47.8076Z" fill="#472B29"/>
<path d="M35.6408 52.7995C35.5941 52.7995 35.5501 52.7696 35.5361 52.7229L34.8761 50.6329C34.8576 50.5748 34.8901 50.5132 34.9482 50.4948C35.0081 50.478 35.0679 50.5088 35.0864 50.5669L35.7464 52.6569C35.7649 52.715 35.7323 52.7766 35.6742 52.7951C35.6628 52.7977 35.6513 52.7995 35.6408 52.7995ZM35.2008 53.6795C35.1541 53.6795 35.1101 53.6496 35.0961 53.6029L34.2662 50.9752C34.2477 50.9172 34.2803 50.8556 34.3384 50.8371C34.3982 50.8195 34.4589 50.8512 34.4765 50.9092L35.3064 53.5369C35.3249 53.595 35.2923 53.6566 35.2342 53.6751C35.2228 53.6777 35.2113 53.6795 35.2008 53.6795ZM34.9333 55.1068C34.8866 55.1068 34.8426 55.0769 34.8285 55.0303L33.7215 51.5235C33.703 51.4654 33.7356 51.4038 33.7937 51.3853C33.8544 51.3668 33.9133 51.4003 33.9318 51.4575L35.0389 54.9643C35.0573 55.0224 35.0248 55.084 34.9667 55.1024C34.9553 55.1051 34.9438 55.1068 34.9333 55.1068ZM34.2513 55.2195C34.2046 55.2195 34.1606 55.1896 34.1465 55.1429L33.1653 52.0356C33.1469 51.9776 33.1794 51.916 33.2375 51.8975C33.2991 51.8808 33.3581 51.9124 33.3757 51.9696L34.3569 55.0769C34.3753 55.135 34.3428 55.1966 34.2847 55.2151C34.2733 55.2177 34.2618 55.2195 34.2513 55.2195Z" fill="#472B29"/>
</svg>
