<svg width="22" height="20" viewBox="0 0 22 20" fill="none" xmlns="http://www.w3.org/2000/svg">
<path d="M20.334 13.9993H1.66732C0.933984 13.9993 0.333984 13.3993 0.333984 12.666C0.333984 11.9327 0.933984 11.3327 1.66732 11.3327H20.334C21.0673 11.3327 21.6673 11.9327 21.6673 12.666C21.6673 13.3993 21.0673 13.9993 20.334 13.9993ZM20.334 16.666H1.66732C0.933984 16.666 0.333984 17.266 0.333984 17.9993C0.333984 18.7327 0.933984 19.3327 1.66732 19.3327H20.334C21.0673 19.3327 21.6673 18.7327 21.6673 17.9993C21.6673 17.266 21.0673 16.666 20.334 16.666ZM15.0007 8.66602L21.1073 4.33268C21.454 4.07935 21.6673 3.67935 21.6673 3.25268C21.6673 2.17268 20.4406 1.53268 19.5606 2.15935L15.0007 5.39935L8.33398 0.666016L0.973984 5.14602C0.573984 5.39935 0.333984 5.82602 0.333984 6.29268C0.333984 7.33268 1.46732 7.97268 2.36065 7.42602L8.22732 3.85268L15.0007 8.66602Z" fill="#EE3E54"/>
</svg>
