<svg width="20" height="26" viewBox="0 0 20 26" fill="none" xmlns="http://www.w3.org/2000/svg">
<path d="M3.33268 22.814C1.86602 22.814 0.666016 24.014 0.666016 25.4807H19.3327C19.3327 24.014 18.1327 22.814 16.666 22.814H11.3327V20.1473H15.3327C16.7993 20.1473 17.9993 18.9473 17.9993 17.4807H7.33268C5.11935 17.4807 3.33268 15.694 3.33268 13.4807C3.33268 12.0273 4.11935 10.7607 5.27935 10.0673C4.89268 9.52067 4.66602 8.86734 4.66602 8.14734C4.66602 7.86734 4.71935 7.58734 4.78602 7.32067C2.37268 8.32067 0.666016 10.7073 0.666016 13.4807C0.666016 17.1607 3.65268 20.1473 7.33268 20.1473V22.814H3.33268Z" fill="#5A8088"/>
<path d="M8.07935 4.82734C9.87935 4.86734 11.3327 6.334 11.3327 8.14734C11.3327 9.14734 10.8927 10.0273 10.1993 10.6407L10.5327 11.5473C10.786 12.2407 11.546 12.6007 12.2393 12.3473C12.4927 13.0407 13.2527 13.4007 13.946 13.1473C14.6393 12.894 14.9993 12.134 14.746 11.4407C15.4394 11.1873 15.7993 10.4273 15.546 9.734L12.7993 2.20067C12.546 1.50734 11.786 1.14734 11.0927 1.40067C10.8393 0.707336 10.0793 0.347335 9.38602 0.600669C8.69268 0.854002 8.33268 1.614 8.58602 2.30734C7.89268 2.56067 7.53268 3.32067 7.78602 4.014L8.07935 4.82734Z" fill="#5A8088"/>
<path d="M7.99935 10.1473C9.10392 10.1473 9.99935 9.2519 9.99935 8.14734C9.99935 7.04277 9.10392 6.14734 7.99935 6.14734C6.89478 6.14734 5.99935 7.04277 5.99935 8.14734C5.99935 9.2519 6.89478 10.1473 7.99935 10.1473Z" fill="#5A8088"/>
</svg>
