<svg width="24" height="24" viewBox="0 0 24 24" fill="none" xmlns="http://www.w3.org/2000/svg">
<path d="M23.3867 19.64L16 10.6667V2.66667H17.3333C18.0667 2.66667 18.6667 2.06667 18.6667 1.33333C18.6667 0.6 18.0667 0 17.3333 0H6.66667C5.93333 0 5.33333 0.6 5.33333 1.33333C5.33333 2.06667 5.93333 2.66667 6.66667 2.66667H8V10.6667L0.613333 19.64C0.186667 20.16 0 20.7467 0 21.3333C0.0133333 22.7067 1.09333 24 2.66667 24H21.3333C22.92 24 24 22.7067 24 21.3333C24 20.7467 23.8133 20.16 23.3867 19.64Z" fill="#B35969"/>
</svg>
