<svg width="30" height="28" viewBox="0 0 30 28" fill="none" xmlns="http://www.w3.org/2000/svg">
<path d="M27.0006 0.666016H3.00065C1.53398 0.666016 0.333984 1.86602 0.333984 3.33268V19.3327C0.333984 20.7993 1.53398 21.9993 3.00065 21.9993H12.334L10.1607 25.266C9.57398 26.146 10.2007 27.3327 11.2673 27.3327H18.734C19.8006 27.3327 20.4406 26.146 19.8407 25.266L17.6673 21.9993H27.0006C28.4673 21.9993 29.6673 20.7993 29.6673 19.3327V3.33268C29.6673 1.86602 28.4673 0.666016 27.0006 0.666016ZM27.0006 16.666H3.00065V4.66602C3.00065 3.93268 3.60065 3.33268 4.33398 3.33268H25.6673C26.4007 3.33268 27.0006 3.93268 27.0006 4.66602V16.666Z" fill="#5A8088"/>
</svg>
