<svg width="24" height="24" viewBox="0 0 24 24" fill="none" xmlns="http://www.w3.org/2000/svg">
<path d="M17.6514 11.3452L19.7447 9.25185L14.7447 4.25185L12.6514 6.34519L7.13138 0.838522C6.09138 -0.201478 4.39805 -0.201478 3.35805 0.838522L0.824713 3.37186C-0.215287 4.41186 -0.215287 6.10519 0.824713 7.14519L6.33138 12.6519L0.198047 18.7985C0.0647137 18.9319 -0.00195312 19.0919 -0.00195312 19.2785V23.3319C-0.00195312 23.7052 0.29138 23.9985 0.664714 23.9985H4.71805C4.89138 23.9985 5.06471 23.9319 5.18471 23.7985L11.3447 17.6385L16.8514 23.1452C18.6114 24.9052 20.5314 23.2385 20.6247 23.1452L23.158 20.6119C24.198 19.5719 24.198 17.8785 23.158 16.8385L17.6514 11.3452ZM8.23805 10.7585L2.71805 5.25185L5.23805 2.71852L6.93138 4.41185L6.30471 5.06519C5.78471 5.58519 5.78471 6.42519 6.30471 6.94519C6.82471 7.46519 7.66471 7.46519 8.18471 6.94519L8.82471 6.30519L10.758 8.23852L8.23805 10.7585ZM18.7447 21.2785L13.238 15.7719L15.7714 13.2385L17.7047 15.1719L17.0647 15.8119C16.5447 16.3319 16.5447 17.1719 17.0647 17.6919C17.5847 18.2119 18.4247 18.2119 18.9447 17.6919L19.5847 17.0519L21.278 18.7452L18.7447 21.2785Z" fill="#00A7A7"/>
<path d="M23.6114 5.38519C24.1314 4.86519 24.1314 4.02519 23.6114 3.50519L20.4914 0.385188C19.8647 -0.241478 18.998 -0.00147847 18.6114 0.385188L16.1714 2.82519L21.1714 7.82519L23.6114 5.38519Z" fill="#00A7A7"/>
</svg>
