<svg width="26" height="28" viewBox="0 0 26 28" fill="none" xmlns="http://www.w3.org/2000/svg">
<path d="M3.00065 13.8285V19.1619C3.00065 20.2685 3.89398 21.1619 5.00065 21.1619C6.10732 21.1619 7.00065 20.2685 7.00065 19.1619V13.8285C7.00065 12.7219 6.10732 11.8285 5.00065 11.8285C3.89398 11.8285 3.00065 12.7219 3.00065 13.8285ZM11.0007 13.8285V19.1619C11.0007 20.2685 11.894 21.1619 13.0007 21.1619C14.1073 21.1619 15.0007 20.2685 15.0007 19.1619V13.8285C15.0007 12.7219 14.1073 11.8285 13.0007 11.8285C11.894 11.8285 11.0007 12.7219 11.0007 13.8285ZM2.33398 27.8285H23.6673C24.774 27.8285 25.6673 26.9352 25.6673 25.8285C25.6673 24.7219 24.774 23.8285 23.6673 23.8285H2.33398C1.22732 23.8285 0.333984 24.7219 0.333984 25.8285C0.333984 26.9352 1.22732 27.8285 2.33398 27.8285ZM19.0007 13.8285V19.1619C19.0007 20.2685 19.894 21.1619 21.0007 21.1619C22.1073 21.1619 23.0007 20.2685 23.0007 19.1619V13.8285C23.0007 12.7219 22.1073 11.8285 21.0007 11.8285C19.894 11.8285 19.0007 12.7219 19.0007 13.8285ZM11.7606 0.481875L1.22732 6.02854C0.680651 6.30854 0.333984 6.88187 0.333984 7.49521C0.333984 8.41521 1.08065 9.16187 2.00065 9.16187H24.014C24.9207 9.16187 25.6673 8.41521 25.6673 7.49521C25.6673 6.88187 25.3207 6.30854 24.774 6.02854L14.2407 0.481875C13.4673 0.0685417 12.534 0.0685417 11.7606 0.481875Z" fill="#F1BC19"/>
</svg>
