<svg width="19" height="22" viewBox="0 0 19 22" fill="none" xmlns="http://www.w3.org/2000/svg">
<path fill-rule="evenodd" clip-rule="evenodd" d="M4.22737 14.6727C4.22737 16.1001 4.74365 17.2201 5.77621 18.0327C6.80876 18.8452 8.2331 19.2515 10.0492 19.2515C11.8654 19.2515 13.3519 18.9697 14.509 18.406V15.9244C13.7767 16.2685 13.0004 16.5393 12.1803 16.737C11.3527 16.9346 10.5838 17.0335 9.87348 17.0335C8.8336 17.0335 8.06833 16.8358 7.57769 16.4405C7.07972 16.0452 6.83073 15.5145 6.83073 14.8484C6.83073 14.6735 6.85001 14.5063 6.88856 14.3469H16.2519V12.473H8.88173C9.28886 12.2736 9.76957 12.0625 10.3238 11.8398C11.2604 11.4606 12.0203 11.047 12.6036 10.599H16.2519V8.72501H14.0357C14.2267 8.22001 14.3223 7.66612 14.3223 7.06332C14.3223 5.72372 13.8463 4.66961 12.8943 3.90098C11.9423 3.13236 10.6644 2.74805 9.06061 2.74805C7.52276 2.74805 5.99224 3.08478 4.46903 3.75824L5.30387 5.8994C6.73187 5.29914 8.00609 4.99902 9.12652 4.99902C9.976 4.99902 10.6204 5.18568 11.0598 5.55901C11.4992 5.92502 11.7189 6.41182 11.7189 7.0194C11.7189 7.43665 11.631 7.79534 11.4553 8.09547C11.3244 8.31343 11.1307 8.52327 10.8741 8.72501H3.12891V10.599H7.04378C6.53654 10.8583 6.12866 11.1072 5.82014 11.3456C5.37971 11.6861 5.03346 12.0619 4.7814 12.473H3.12891V14.3469H4.23636C4.23037 14.4533 4.22737 14.5619 4.22737 14.6727Z" fill="#607D8B"/>
</svg>
