<svg width="22" height="22" viewBox="0 0 22 22" fill="none" xmlns="http://www.w3.org/2000/svg">
<path d="M21.6673 7.00065C21.6673 6.26732 21.0673 5.66732 20.334 5.66732H16.334V1.66732C16.334 0.933984 15.734 0.333984 15.0007 0.333984C14.2673 0.333984 13.6673 0.933984 13.6673 1.66732V5.66732H8.33398V1.66732C8.33398 0.933984 7.73398 0.333984 7.00065 0.333984C6.26732 0.333984 5.66732 0.933984 5.66732 1.66732V5.66732H1.66732C0.933984 5.66732 0.333984 6.26732 0.333984 7.00065C0.333984 7.73398 0.933984 8.33398 1.66732 8.33398H5.66732V13.6673H1.66732C0.933984 13.6673 0.333984 14.2673 0.333984 15.0007C0.333984 15.734 0.933984 16.334 1.66732 16.334H5.66732V20.334C5.66732 21.0673 6.26732 21.6673 7.00065 21.6673C7.73398 21.6673 8.33398 21.0673 8.33398 20.334V16.334H13.6673V20.334C13.6673 21.0673 14.2673 21.6673 15.0007 21.6673C15.734 21.6673 16.334 21.0673 16.334 20.334V16.334H20.334C21.0673 16.334 21.6673 15.734 21.6673 15.0007C21.6673 14.2673 21.0673 13.6673 20.334 13.6673H16.334V8.33398H20.334C21.0673 8.33398 21.6673 7.73398 21.6673 7.00065ZM13.6673 13.6673H8.33398V8.33398H13.6673V13.6673Z" fill="#F1BC19"/>
</svg>
