<svg width="28" height="28" viewBox="0 0 28 28" fill="none" xmlns="http://www.w3.org/2000/svg">
<path d="M13.986 0.666016C6.62602 0.666016 0.666016 6.63935 0.666016 13.9993C0.666016 21.3594 6.62602 27.3327 13.986 27.3327C21.3594 27.3327 27.3327 21.3594 27.3327 13.9993C27.3327 6.63935 21.3594 0.666016 13.986 0.666016ZM23.226 8.66602H19.2927C18.866 6.99935 18.2527 5.39935 17.4527 3.91935C19.906 4.75935 21.946 6.46602 23.226 8.66602ZM13.9993 3.38602C15.106 4.98602 15.9727 6.75935 16.546 8.66602H11.4527C12.026 6.75935 12.8927 4.98602 13.9993 3.38602ZM3.67935 16.666C3.46602 15.8127 3.33268 14.9193 3.33268 13.9993C3.33268 13.0793 3.46602 12.186 3.67935 11.3327H8.18602C8.07935 12.2127 7.99935 13.0927 7.99935 13.9993C7.99935 14.906 8.07935 15.786 8.18602 16.666H3.67935ZM4.77268 19.3327H8.70602C9.13268 20.9993 9.74602 22.5993 10.546 24.0793C8.09268 23.2393 6.05268 21.546 4.77268 19.3327ZM8.70602 8.66602H4.77268C6.05268 6.45268 8.09268 4.75935 10.546 3.91935C9.74602 5.39935 9.13268 6.99935 8.70602 8.66602ZM13.9993 24.6127C12.8927 23.0127 12.026 21.2393 11.4527 19.3327H16.546C15.9727 21.2393 15.106 23.0127 13.9993 24.6127ZM17.1194 16.666H10.8793C10.7593 15.786 10.666 14.906 10.666 13.9993C10.666 13.0927 10.7593 12.1993 10.8793 11.3327H17.1194C17.2393 12.1993 17.3327 13.0927 17.3327 13.9993C17.3327 14.906 17.2393 15.786 17.1194 16.666ZM17.4527 24.0793C18.2527 22.5993 18.866 20.9993 19.2927 19.3327H23.226C21.946 21.5327 19.906 23.2393 17.4527 24.0793ZM19.8127 16.666C19.9193 15.786 19.9993 14.906 19.9993 13.9993C19.9993 13.0927 19.9193 12.2127 19.8127 11.3327H24.3193C24.5327 12.186 24.666 13.0793 24.666 13.9993C24.666 14.9193 24.5327 15.8127 24.3193 16.666H19.8127Z" fill="#66C42C"/>
</svg>
